<svg width="217" height="182" viewBox="0 0 217 182" fill="none" xmlns="http://www.w3.org/2000/svg">
<rect x="0.5" width="216.5" height="182" rx="12" fill="#F5F8FF"/>
<path fill-rule="evenodd" clip-rule="evenodd" d="M143.377 94.2181C142.429 93.1669 141.079 92.5669 139.664 92.5669L66.7878 92.5669C64.0264 92.5669 61.7878 94.8055 61.7878 97.5669V138C61.7878 140.761 64.0264 143 66.7878 143L139.664 143C141.079 143 142.429 142.4 143.377 141.349L161.611 121.132C163.327 119.23 163.327 116.337 161.611 114.435L143.377 94.2181ZM143.865 123.222C146.596 123.222 148.81 121.009 148.81 118.278C148.81 115.547 146.596 113.334 143.865 113.334C141.134 113.334 138.921 115.547 138.921 118.278C138.921 121.009 141.134 123.222 143.865 123.222ZM71.6767 113.171C71.6767 111.533 73.0049 110.205 74.6433 110.205H125.076C126.715 110.205 128.043 111.533 128.043 113.171C128.043 114.81 126.715 116.138 125.076 116.138H74.6433C73.0049 116.138 71.6767 114.81 71.6767 113.171ZM74.6433 121.082C73.0049 121.082 71.6767 122.411 71.6767 124.049C71.6767 125.688 73.0049 127.016 74.6433 127.016H104.31C105.948 127.016 107.276 125.688 107.276 124.049C107.276 122.411 105.948 121.082 104.31 121.082H74.6433Z" fill="#386FFA"/>
<mask id="path-3-inside-1_1430_5869" fill="white">
<path fill-rule="evenodd" clip-rule="evenodd" d="M143.377 39.6512C142.429 38.6 141.079 38 139.664 38L66.7878 38C64.0264 38 61.7878 40.2386 61.7878 43L61.7878 83.4331C61.7878 86.1945 64.0264 88.4331 66.7878 88.4331L139.664 88.4331C141.079 88.4331 142.429 87.8331 143.377 86.7819L161.611 66.5654C163.327 64.6626 163.327 61.7704 161.611 59.8677L143.377 39.6512ZM143.865 68.6554C146.596 68.6554 148.81 66.4417 148.81 63.711C148.81 60.9803 146.596 58.7666 143.865 58.7666C141.134 58.7666 138.921 60.9803 138.921 63.711C138.921 66.4417 141.134 68.6554 143.865 68.6554Z"/>
</mask>
<path d="M139.664 38V39.7961V38ZM143.377 39.6512L144.71 38.4482V38.4482L143.377 39.6512ZM66.7878 38V36.2039V38ZM61.7878 43H59.9917H61.7878ZM61.7878 83.4331H59.9917H61.7878ZM66.7878 88.4331V86.6369V88.4331ZM139.664 88.4331V90.2292V88.4331ZM143.377 86.7819L142.043 85.5789L143.377 86.7819ZM161.611 66.5654L160.277 65.3624V65.3624L161.611 66.5654ZM161.611 59.8677L160.277 61.0707L161.611 59.8677ZM139.664 39.7961C140.571 39.7961 141.435 40.1806 142.043 40.8542L144.71 38.4482C143.422 37.0194 141.588 36.2039 139.664 36.2039V39.7961ZM66.7878 39.7961L139.664 39.7961V36.2039L66.7878 36.2039V39.7961ZM63.584 43C63.584 41.2306 65.0184 39.7961 66.7878 39.7961V36.2039C63.0344 36.2039 59.9917 39.2466 59.9917 43H63.584ZM63.584 83.4331L63.584 43H59.9917L59.9917 83.4331H63.584ZM66.7878 86.6369C65.0184 86.6369 63.584 85.2025 63.584 83.4331H59.9917C59.9917 87.1865 63.0344 90.2292 66.7878 90.2292V86.6369ZM139.664 86.6369L66.7878 86.6369V90.2292L139.664 90.2292V86.6369ZM142.043 85.5789C141.435 86.2525 140.571 86.6369 139.664 86.6369V90.2292C141.588 90.2292 143.422 89.4137 144.71 87.9849L142.043 85.5789ZM160.277 65.3624L142.043 85.5789L144.71 87.9849L162.945 67.7684L160.277 65.3624ZM160.277 61.0707C161.377 62.2899 161.377 64.1432 160.277 65.3624L162.945 67.7684C165.278 65.1821 165.278 61.251 162.945 58.6647L160.277 61.0707ZM142.043 40.8542L160.277 61.0707L162.945 58.6647L144.71 38.4482L142.043 40.8542ZM147.013 63.711C147.013 65.4497 145.604 66.8593 143.865 66.8593V70.4515C147.588 70.4515 150.606 67.4337 150.606 63.711H147.013ZM143.865 60.5627C145.604 60.5627 147.013 61.9722 147.013 63.711H150.606C150.606 59.9883 147.588 56.9704 143.865 56.9704V60.5627ZM140.717 63.711C140.717 61.9722 142.126 60.5627 143.865 60.5627V56.9704C140.142 56.9704 137.125 59.9883 137.125 63.711H140.717ZM143.865 66.8593C142.126 66.8593 140.717 65.4497 140.717 63.711H137.125C137.125 67.4337 140.142 70.4515 143.865 70.4515V66.8593Z" fill="#001F5C" mask="url(#path-3-inside-1_1430_5869)"/>
</svg>
