<svg width="200" height="132" viewBox="0 0 200 132" fill="none" xmlns="http://www.w3.org/2000/svg">
<path d="M180.782 36.3592L198.616 20.5566M170.913 28.3097L193.947 1.13829" stroke="#001F5C" stroke-width="1.79614" stroke-linecap="round" stroke-linejoin="round"/>
<path fill-rule="evenodd" clip-rule="evenodd" d="M57.6949 30.7177C42.7031 30.7177 30.5498 42.8709 30.5498 57.8627C30.5498 72.8546 42.7031 85.0078 57.6949 85.0078H151.572C166.564 85.0078 178.717 72.8546 178.717 57.8627C178.717 42.8709 166.564 30.7177 151.572 30.7177H57.6949ZM109.666 59.0915L128.46 50.8217L128.461 50.8206C130.825 49.7803 133.578 50.8705 134.609 53.2561C135.641 55.6415 134.56 58.4188 132.195 59.4591L106.864 70.6067C106.274 70.8662 105.638 71 104.995 71C102.415 70.9997 100.324 68.8897 100.324 66.2873V59.9088L81.53 68.1791C79.1706 69.2112 76.4282 68.1249 75.3948 65.7492C74.3583 63.3663 75.4329 60.5865 77.7953 59.5409L103.127 48.3933C103.716 48.1338 104.353 48 104.996 48C107.576 48.0005 109.667 50.1106 109.666 52.713V59.0915Z" fill="#386FFA"/>
<path d="M134.768 69.4833L145.3 102.359L164.034 82.7913L134.768 69.4833Z" fill="white"/>
<path d="M134.336 69.4303L154.762 130.765L162.394 100.347" stroke="#001F5C" stroke-width="1.79614" stroke-linecap="round" stroke-linejoin="round"/>
<path d="M134.336 69.4303L193.407 95.693L162.394 100.347" stroke="#001F5C" stroke-width="1.79614" stroke-linecap="round" stroke-linejoin="round"/>
<circle cx="25.5" cy="27.5" r="24.5" stroke="#001F5C" stroke-width="1.79614" stroke-linecap="round" stroke-linejoin="round"/>
<circle r="11.6053" transform="matrix(1 0 0 -1 25.4998 27.5)" stroke="#001F5C" stroke-width="1.79614" stroke-linecap="round" stroke-linejoin="round"/>
</svg>
