<svg width="554" height="286" viewBox="0 0 554 286" fill="none" xmlns="http://www.w3.org/2000/svg">
<g clip-path="url(#clip0_3104_6194)">
<rect width="554" height="285.626" fill="white"/>
<g clip-path="url(#clip1_3104_6194)">
<path d="M187.192 162.88C190.568 154.801 196.259 147.901 203.548 143.048C210.837 138.196 219.399 135.608 228.155 135.611H255.256V148.176C255.256 148.176 253.878 151.632 273.099 151.632C292.321 151.632 293.556 147.209 293.556 147.209V135.611H314.025C322.147 135.612 330.096 137.953 336.921 142.355L382.277 171.602L377.91 157.908C377.91 157.908 394.318 158.831 413.034 137.669C413.034 137.669 434.121 173.467 445.532 193.594C456.942 213.72 465.97 239.442 444.284 252.412C422.598 265.383 401.673 261.852 377.473 244.215C353.273 226.578 334.619 210.401 334.619 210.401L332.66 284.186C329.167 284.186 318.935 283.906 315.853 284.186H315.086V202.028H244.994C244.994 192.67 239.079 183.98 227.981 182.158C210.244 181.328 198.415 189.863 193.474 200.169C186.867 213.944 187.46 221.462 187.46 221.462C187.46 221.462 195.795 233.253 203.681 231.213V273.362C203.681 273.362 197.598 279.601 179.549 279.601C161.501 279.601 153.715 268.814 153.715 254.29C153.752 244.57 173.878 194.804 187.192 162.88Z" fill="#386FFA"/>
<path d="M367.647 107.805C367.647 107.805 362.344 102.084 347.802 101.479C347.133 101.457 346.466 101.57 345.842 101.811C345.218 102.052 344.648 102.416 344.167 102.882C343.686 103.347 343.304 103.905 343.043 104.521C342.782 105.138 342.648 105.8 342.649 106.47C342.654 107.577 343.028 108.652 343.711 109.524C344.394 110.396 345.349 111.016 346.423 111.286C350.653 112.365 357.285 115.946 360.08 127.65C364.328 145.493 375.427 148.812 375.427 148.812C376.416 151.809 377.249 154.856 377.922 157.939M412.366 138.337C411.047 131.385 410.213 124.349 409.871 117.281C409.871 117.281 409.871 92.0706 384.66 92.0706" stroke="#001F5C" stroke-width="2.18356" stroke-linecap="round" stroke-linejoin="round"/>
<path d="M203.718 225.162V231.245C203.718 231.245 192.445 232.212 187.497 221.493C187.497 221.493 189.013 180.486 228.049 182.813" stroke="#001F5C" stroke-width="2.18356" stroke-linecap="round" stroke-linejoin="round"/>
<path d="M221.461 210.401C221.461 210.401 214.642 195.671 212.845 192.72" stroke="#001F5C" stroke-width="1.8" stroke-linecap="round" stroke-linejoin="round"/>
<path d="M211.492 213.988C211.492 213.988 207.174 204.181 205.378 201.205" stroke="#001F5C" stroke-width="1.8" stroke-linecap="round" stroke-linejoin="round"/>
<path d="M203.737 220.533C203.737 220.533 200.218 214.263 198.421 211.293" stroke="#001F5C" stroke-width="1.8" stroke-linecap="round" stroke-linejoin="round"/>
<path d="M203.624 223.103H315.298V282.995H203.624V223.103Z" stroke="#001F5C" stroke-width="1.8" stroke-linecap="round" stroke-linejoin="round"/>
<path d="M236.066 209.378H289.095V213.745H236.066V209.378Z" stroke="#001F5C" stroke-width="2.18356" stroke-linecap="round" stroke-linejoin="round"/>
<path d="M395.74 93.5991V85.3141C395.739 80.952 394.005 76.7691 390.919 73.6851C387.834 70.6012 383.651 68.8688 379.289 68.8688H371.858C370.803 68.868 369.758 69.0753 368.782 69.4788C367.807 69.8823 366.921 70.4742 366.175 71.2205C365.428 71.9668 364.836 72.853 364.433 73.8283C364.029 74.8036 363.822 75.8488 363.823 76.9043V76.9043" stroke="#001F5C" stroke-width="2.18356" stroke-linecap="round" stroke-linejoin="round"/>
<rect x="346.549" y="70.7445" width="42.4234" height="59.2849" rx="4.99099" transform="rotate(17.6484 346.549 70.7445)" fill="#386FFA"/>
<path d="M401.673 121.393C401.673 121.393 396.277 115.154 385.178 115.154C374.079 115.154 367.647 121.274 367.647 121.274" stroke="#001F5C" stroke-width="1.8" stroke-linecap="round" stroke-linejoin="round"/>
<path d="M401.673 109.346C401.673 109.346 396.277 103.107 385.178 103.107C374.079 103.107 367.647 109.227 367.647 109.227" stroke="#001F5C" stroke-width="2.18356" stroke-linecap="round" stroke-linejoin="round"/>
</g>
<g clip-path="url(#clip2_3104_6194)">
<path d="M273.879 38.1243C290.573 38.1243 304.105 50.6017 304.105 78.3517C304.105 106.102 290.605 128.555 273.879 128.555C257.153 128.555 243.658 106.095 243.658 78.3517C243.658 50.608 257.19 38.1243 273.879 38.1243Z" stroke="#001F5C" stroke-width="1.8" stroke-miterlimit="10"/>
<path d="M243.658 82.619C243.658 82.619 241.787 77.4907 236.172 78.1957C229.964 78.9693 230.775 87.1857 230.775 87.1857C230.775 87.1857 230.831 104.03 246.016 97.8914" stroke="#001F5C" stroke-width="1.8" stroke-miterlimit="10"/>
<path d="M303.937 82.619C303.937 82.619 305.808 77.4907 311.423 78.1957C317.625 78.9693 316.82 87.1857 316.82 87.1857C316.82 87.1857 316.757 104.03 301.572 97.8914" stroke="#001F5C" stroke-width="1.8" stroke-miterlimit="10"/>
<path d="M255.15 118.666V147.202C255.15 147.202 256.398 151.626 275.607 151.626C294.816 151.626 293.45 148.169 293.45 148.169V116.932C293.45 116.932 285.845 128.549 273.879 128.549C262.948 128.555 255.15 118.666 255.15 118.666Z" stroke="#001F5C" stroke-width="1.8" stroke-miterlimit="10"/>
<path d="M254.601 129.665C254.601 129.665 281.97 140.795 292.894 120.12C293.45 117.35 292.894 118.598 292.894 118.598C292.894 118.598 286.949 128.143 276.711 128.418C266.473 128.692 255.15 119.059 255.15 119.059L254.601 129.665Z" fill="#001F5C"/>
</g>
<path d="M260.259 88.603C261.672 88.603 262.817 86.6841 262.817 84.317C262.817 81.9499 261.672 80.0309 260.259 80.0309C258.847 80.0309 257.702 81.9499 257.702 84.317C257.702 86.6841 258.847 88.603 260.259 88.603Z" fill="#001F5C"/>
<path d="M263.042 73.6549L254.058 78.3277C252.979 78.8892 251.687 77.7725 251.931 76.4998C252.218 74.9838 253.178 73.1558 255.718 71.8207C257.784 70.7717 260.129 70.4006 262.418 70.7601C263.834 70.9598 264.258 73.0123 263.042 73.6549Z" fill="#001F5C"/>
<path d="M289.051 88.603C290.464 88.603 291.609 86.6841 291.609 84.317C291.609 81.9499 290.464 80.0309 289.051 80.0309C287.639 80.0309 286.493 81.9499 286.493 84.317C286.493 86.6841 287.639 88.603 289.051 88.603Z" fill="#001F5C"/>
<path d="M283.892 72.6255L292.894 76.9926C293.974 77.5105 295.221 76.3688 294.947 75.121C294.616 73.6237 293.637 71.8519 291.066 70.6104C288.998 69.6301 286.672 69.3309 284.422 69.7557C283.031 69.9928 282.657 72.0328 283.892 72.6255Z" fill="#001F5C"/>
<path d="M275.488 107.463C275.488 107.463 283.162 107.781 286.406 100.943" stroke="#001F5C" stroke-width="1.8" stroke-linecap="round" stroke-linejoin="round"/>
<path d="M271.865 82.669L271.241 101.073L279.975 97.9539" stroke="#001F5C" stroke-width="1.8" stroke-linecap="round" stroke-linejoin="round"/>
<path d="M255.248 53.8272C255.248 53.8272 255.248 59.6355 271.431 59.6355C287.614 59.6355 289.798 51.0572 289.798 51.0572C289.798 51.0572 288.276 59.361 301.695 67.2405C303.567 71.7199 303.517 82.9621 303.517 82.9621C303.517 82.9621 302.388 78.7198 309.855 78.7198C317.323 78.7198 318.016 93.5181 311.103 96.9806C304.191 100.443 301.383 97.4672 301.383 97.4672C300.426 105.387 297.278 112.882 292.293 119.109C292.156 129.759 292.293 141.793 292.293 141.793C292.293 141.793 327.561 144.139 334.205 112.471C337.106 94.6286 324.223 100.711 317.885 65.1692C311.546 29.6271 288.563 24.0871 274.313 24.0871C260.064 24.0871 246.794 29.3464 237.941 45.8042C229.089 62.262 230.748 68.9437 219.132 82.9621C207.515 96.9806 206.405 105.422 211.52 118.417C216.636 131.412 238.634 141.831 254.674 141.831L255.298 119.109C250.329 112.431 247.056 104.647 245.759 96.4253C242.989 98.6401 235.727 101.129 231.99 92.969C228.253 84.8088 231.852 78.7198 236.981 78.7198C242.109 78.7198 243.163 82.9621 243.163 82.9621L244.586 68.4882C244.586 68.4882 254.418 64.196 255.248 53.8272Z" fill="#001F5C"/>
<path d="M258.392 96.1071C265.531 96.1071 271.319 90.3197 271.319 83.1805C271.319 76.0413 265.531 70.2538 258.392 70.2538C251.253 70.2538 245.465 76.0413 245.465 83.1805C245.465 90.3197 251.253 96.1071 258.392 96.1071Z" stroke="#001F5C" stroke-width="1.8" stroke-linecap="round" stroke-linejoin="round"/>
<path d="M289.342 96.1071C296.482 96.1071 302.269 90.3197 302.269 83.1805C302.269 76.0413 296.482 70.2538 289.342 70.2538C282.203 70.2538 276.416 76.0413 276.416 83.1805C276.416 90.3197 282.203 96.1071 289.342 96.1071Z" stroke="#001F5C" stroke-width="1.8" stroke-linecap="round" stroke-linejoin="round"/>
<path d="M268.343 81.1653H278.868" stroke="#001F5C" stroke-width="1.8" stroke-linecap="round" stroke-linejoin="round"/>
<path d="M246.442 97.3166H235.277L230.048 112.329H237.551L234.152 122.976L246.442 107.69H241.272L246.442 97.3166Z" fill="#386FFA"/>
<path d="M316.43 97.3166H305.264L300.036 112.329H307.539L304.14 122.976L316.43 107.69H311.259L316.43 97.3166Z" fill="#386FFA"/>
</g>
<defs>
<clipPath id="clip0_3104_6194">
<rect width="554" height="285.626" fill="white"/>
</clipPath>
<clipPath id="clip1_3104_6194">
<rect width="554" height="300.707" fill="white" transform="translate(-3.50174 2.87543)"/>
</clipPath>
<clipPath id="clip2_3104_6194">
<rect width="87.9475" height="115.373" fill="white" transform="translate(229.827 37.1885)"/>
</clipPath>
</defs>
</svg>
