<svg width="217" height="182" viewBox="0 0 217 182" fill="none" xmlns="http://www.w3.org/2000/svg">
<rect width="216.5" height="182" rx="12" fill="#F5F8FF"/>
<circle r="9.56503" transform="matrix(-1 0 0 1 60.2044 53.565)" fill="#386FFA"/>
<path d="M42.244 81.4322C41.9741 83.067 43.3401 84.4199 44.9969 84.4199C48.253 84.4199 53.8483 84.4199 60.2044 84.4199C66.5605 84.4199 72.1558 84.4199 75.4119 84.4199C77.0687 84.4199 78.4347 83.067 78.1648 81.4322C76.7395 72.7996 69.2409 66.2155 60.2044 66.2155C51.1679 66.2155 43.6693 72.7996 42.244 81.4322Z" fill="#386FFA"/>
<circle r="9.56503" transform="matrix(-1 0 0 1 60.2044 107.145)" stroke="#001F5C" stroke-width="1.79614" stroke-linecap="round" stroke-linejoin="round"/>
<path d="M43.13 135.159C42.9668 136.147 43.7892 137.102 44.9969 137.102H45.016H45.0352H45.0544H45.0737H45.093H45.1124H45.1318H45.1513H45.1708H45.1904H45.21H45.2297H45.2494H45.2692H45.2891H45.309H45.3289H45.3489H45.369H45.3891H45.4093H45.4295H45.4497H45.4701H45.4904H45.5109H45.5313H45.5519H45.5724H45.5931H45.6137H45.6345H45.6552H45.6761H45.697H45.7179H45.7389H45.7599H45.781H45.8021H45.8233H45.8446H45.8659H45.8872H45.9086H45.93H45.9515H45.9731H45.9947H46.0163H46.038H46.0597H46.0815H46.1034H46.1253H46.1472H46.1692H46.1912H46.2133H46.2355H46.2577H46.2799H46.3022H46.3245H46.3469H46.3693H46.3918H46.4144H46.4369H46.4596H46.4822H46.505H46.5277H46.5506H46.5734H46.5964H46.6193H46.6423H46.6654H46.6885H46.7117H46.7349H46.7581H46.7814H46.8048H46.8282H46.8516H46.8751H46.8987H46.9223H46.9459H46.9696H46.9933H47.0171H47.0409H47.0648H47.0887H47.1127H47.1367H47.1607H47.1848H47.209H47.2332H47.2574H47.2817H47.306H47.3304H47.3548H47.3793H47.4038H47.4284H47.453H47.4777H47.5024H47.5271H47.5519H47.5767H47.6016H47.6266H47.6515H47.6765H47.7016H47.7267H47.7519H47.7771H47.8023H47.8276H47.8529H47.8783H47.9037H47.9292H47.9547H47.9802H48.0058H48.0315H48.0572H48.0829H48.1087H48.1345H48.1604H48.1863H48.2122H48.2382H48.2642H48.2903H48.3164H48.3426H48.3688H48.3951H48.4214H48.4477H48.4741H48.5005H48.527H48.5535H48.58H48.6066H48.6332H48.6599H48.6866H48.7134H48.7402H48.7671H48.794H48.8209H48.8479H48.8749H48.9019H48.929H48.9562H48.9833H49.0106H49.0378H49.0651H49.0925H49.1199H49.1473H49.1748H49.2023H49.2298H49.2574H49.2851H49.3127H49.3405H49.3682H49.396H49.4238H49.4517H49.4796H49.5076H49.5356H49.5636H49.5917H49.6198H49.648H49.6762H49.7044H49.7327H49.761H49.7894H49.8178H49.8462H49.8747H49.9032H49.9317H49.9603H49.989H50.0176H50.0463H50.0751H50.1039H50.1327H50.1616H50.1905H50.2194H50.2484H50.2774H50.3064H50.3355H50.3647H50.3938H50.423H50.4523H50.4816H50.5109H50.5402H50.5696H50.5991H50.6285H50.6581H50.6876H50.7172H50.7468H50.7765H50.8062H50.8359H50.8657H50.8955H50.9253H50.9552H50.9851H51.015H51.045H51.0751H51.1051H51.1352H51.1653H51.1955H51.2257H51.256H51.2862H51.3165H51.3469H51.3773H51.4077H51.4382H51.4686H51.4992H51.5297H51.5603H51.591H51.6216H51.6523H51.6831H51.7138H51.7446H51.7755H51.8064H51.8373H51.8682H51.8992H51.9302H51.9613H51.9923H52.0235H52.0546H52.0858H52.117H52.1483H52.1796H52.2109H52.2422H52.2736H52.305H52.3365H52.368H52.3995H52.4311H52.4626H52.4943H52.5259H52.5576H52.5893H52.6211H52.6529H52.6847H52.7165H52.7484H52.7803H52.8123H52.8443H52.8763H52.9083H52.9404H52.9725H53.0047H53.0368H53.069H53.1013H53.1336H53.1659H53.1982H53.2306H53.263H53.2954H53.3278H53.3603H53.3928H53.4254H53.458H53.4906H53.5232H53.5559H53.5886H53.6214H53.6541H53.6869H53.7198H53.7526H53.7855H53.8184H53.8514H53.8844H53.9174H53.9504H53.9835H54.0166H54.0497H54.0829H54.1161H54.1493H54.1825H54.2158H54.2491H54.2824H54.3158H54.3492H54.3826H54.4161H54.4496H54.4831H54.5166H54.5502H54.5838H54.6174H54.6511H54.6847H54.7184H54.7522H54.786H54.8197H54.8536H54.8874H54.9213H54.9552H54.9891H55.0231H55.0571H55.0911H55.1252H55.1592H55.1933H55.2275H55.2616H55.2958H55.33H55.3642H55.3985H55.4328H55.4671H55.5014H55.5358H55.5702H55.6046H55.6391H55.6736H55.7081H55.7426H55.7771H55.8117H55.8463H55.881H55.9156H55.9503H55.985H56.0197H56.0545H56.0893H56.1241H56.1589H56.1938H56.2287H56.2636H56.2985H56.3335H56.3685H56.4035H56.4385H56.4736H56.5087H56.5438H56.5789H56.6141H56.6493H56.6845H56.7197H56.755H56.7903H56.8256H56.8609H56.8963H56.9316H56.967H57.0025H57.0379H57.0734H57.1089H57.1444H57.1799H57.2155H57.2511H57.2867H57.3224H57.358H57.3937H57.4294H57.4651H57.5009H57.5366H57.5724H57.6083H57.6441H57.68H57.7158H57.7518H57.7877H57.8236H57.8596H57.8956H57.9316H57.9677H58.0037H58.0398H58.0759H58.112H58.1482H58.1843H58.2205H58.2567H58.293H58.3292H58.3655H58.4018H58.4381H58.4744H58.5108H58.5472H58.5836H58.62H58.6564H58.6929H58.7294H58.7659H58.8024H58.8389H58.8755H58.9121H58.9487H58.9853H59.0219H59.0586H59.0953H59.132H59.1687H59.2054H59.2422H59.279H59.3157H59.3526H59.3894H59.4262H59.4631H59.5H59.5369H59.5738H59.6108H59.6478H59.6847H59.7217H59.7588H59.7958H59.8329H59.8699H59.907H59.9441H59.9813H60.0184H60.0556H60.0927H60.1299H60.1672H60.2044H60.2416H60.2788H60.316H60.3532H60.3904H60.4275H60.4647H60.5018H60.5389H60.5759H60.613H60.65H60.6871H60.7241H60.761H60.798H60.835H60.8719H60.9088H60.9457H60.9825H61.0194H61.0562H61.093H61.1298H61.1666H61.2034H61.2401H61.2768H61.3135H61.3502H61.3869H61.4235H61.4601H61.4967H61.5333H61.5699H61.6064H61.6429H61.6794H61.7159H61.7524H61.7888H61.8252H61.8616H61.898H61.9344H61.9707H62.007H62.0433H62.0796H62.1158H62.1521H62.1883H62.2245H62.2606H62.2968H62.3329H62.369H62.4051H62.4411H62.4772H62.5132H62.5492H62.5852H62.6211H62.657H62.6929H62.7288H62.7647H62.8005H62.8364H62.8721H62.9079H62.9437H62.9794H63.0151H63.0508H63.0864H63.1221H63.1577H63.1933H63.2288H63.2644H63.2999H63.3354H63.3709H63.4063H63.4417H63.4772H63.5125H63.5479H63.5832H63.6185H63.6538H63.6891H63.7243H63.7595H63.7947H63.8298H63.865H63.9001H63.9352H63.9702H64.0053H64.0403H64.0753H64.1102H64.1452H64.1801H64.215H64.2499H64.2847H64.3195H64.3543H64.389H64.4238H64.4585H64.4932H64.5278H64.5625H64.5971H64.6317H64.6662H64.7007H64.7352H64.7697H64.8042H64.8386H64.873H64.9073H64.9417H64.976H65.0103H65.0446H65.0788H65.113H65.1472H65.1813H65.2155H65.2496H65.2836H65.3177H65.3517H65.3857H65.4197H65.4536H65.4875H65.5214H65.5552H65.589H65.6228H65.6566H65.6903H65.7241H65.7577H65.7914H65.825H65.8586H65.8922H65.9257H65.9592H65.9927H66.0262H66.0596H66.093H66.1263H66.1597H66.193H66.2263H66.2595H66.2927H66.3259H66.3591H66.3922H66.4253H66.4584H66.4914H66.5244H66.5574H66.5904H66.6233H66.6562H66.689H66.7219H66.7547H66.7874H66.8202H66.8529H66.8855H66.9182H66.9508H66.9834H67.0159H67.0485H67.081H67.1134H67.1458H67.1782H67.2106H67.2429H67.2752H67.3075H67.3397H67.372H67.4041H67.4363H67.4684H67.5005H67.5325H67.5645H67.5965H67.6284H67.6604H67.6922H67.7241H67.7559H67.7877H67.8195H67.8512H67.8829H67.9145H67.9461H67.9777H68.0093H68.0408H68.0723H68.1038H68.1352H68.1666H68.1979H68.2292H68.2605H68.2918H68.323H68.3542H68.3853H68.4165H68.4475H68.4786H68.5096H68.5406H68.5715H68.6024H68.6333H68.6642H68.695H68.7257H68.7565H68.7872H68.8178H68.8485H68.8791H68.9096H68.9402H68.9706H69.0011H69.0315H69.0619H69.0922H69.1226H69.1528H69.1831H69.2133H69.2435H69.2736H69.3037H69.3337H69.3638H69.3938H69.4237H69.4536H69.4835H69.5133H69.5431H69.5729H69.6026H69.6323H69.662H69.6916H69.7212H69.7507H69.7802H69.8097H69.8391H69.8685H69.8979H69.9272H69.9565H69.9857H70.015H70.0441H70.0733H70.1023H70.1314H70.1604H70.1894H70.2183H70.2472H70.2761H70.3049H70.3337H70.3625H70.3912H70.4198H70.4485H70.4771H70.5056H70.5341H70.5626H70.591H70.6194H70.6478H70.6761H70.7044H70.7326H70.7608H70.789H70.8171H70.8452H70.8732H70.9012H70.9292H70.9571H70.9849H71.0128H71.0406H71.0683H71.0961H71.1237H71.1514H71.179H71.2065H71.234H71.2615H71.2889H71.3163H71.3437H71.371H71.3982H71.4254H71.4526H71.4798H71.5069H71.5339H71.5609H71.5879H71.6148H71.6417H71.6686H71.6954H71.7221H71.7489H71.7755H71.8022H71.8288H71.8553H71.8818H71.9083H71.9347H71.9611H71.9874H72.0137H72.04H72.0662H72.0924H72.1185H72.1446H72.1706H72.1966H72.2225H72.2484H72.2743H72.3001H72.3259H72.3516H72.3773H72.4029H72.4285H72.4541H72.4796H72.5051H72.5305H72.5559H72.5812H72.6065H72.6317H72.6569H72.6821H72.7072H72.7323H72.7573H72.7822H72.8072H72.8321H72.8569H72.8817H72.9064H72.9311H72.9558H72.9804H73.005H73.0295H73.0539H73.0784H73.1028H73.1271H73.1514H73.1756H73.1998H73.224H73.2481H73.2721H73.2961H73.3201H73.344H73.3679H73.3917H73.4155H73.4392H73.4629H73.4865H73.5101H73.5337H73.5572H73.5806H73.604H73.6273H73.6507H73.6739H73.6971H73.7203H73.7434H73.7664H73.7895H73.8124H73.8354H73.8582H73.881H73.9038H73.9265H73.9492H73.9719H73.9944H74.017H74.0395H74.0619H74.0843H74.1066H74.1289H74.1511H74.1733H74.1955H74.2176H74.2396H74.2616H74.2835H74.3054H74.3273H74.349H74.3708H74.3925H74.4141H74.4357H74.4573H74.4788H74.5002H74.5216H74.5429H74.5642H74.5855H74.6066H74.6278H74.6489H74.6699H74.6909H74.7118H74.7327H74.7535H74.7743H74.7951H74.8157H74.8364H74.8569H74.8775H74.8979H74.9184H74.9387H74.959H74.9793H74.9995H75.0197H75.0398H75.0599H75.0799H75.0998H75.1197H75.1396H75.1594H75.1791H75.1988H75.2184H75.238H75.2575H75.277H75.2964H75.3158H75.3351H75.3544H75.3736H75.3928H75.4119C76.6196 137.102 77.442 136.147 77.2788 135.159C75.9239 126.953 68.7942 120.694 60.2044 120.694C51.6146 120.694 44.4849 126.953 43.13 135.159Z" stroke="#001F5C" stroke-width="1.79614" stroke-linecap="round" stroke-linejoin="round"/>
<circle r="9.56503" transform="matrix(-1 0 0 1 108.145 53.565)" stroke="#001F5C" stroke-width="1.79614" stroke-linecap="round" stroke-linejoin="round"/>
<path d="M91.0701 81.5785C90.9069 82.5672 91.7292 83.5219 92.937 83.5219H92.9561H92.9753H92.9945H93.0137H93.033H93.0524H93.0718H93.0913H93.1109H93.1304H93.1501H93.1698H93.1895H93.2093H93.2291H93.249H93.269H93.289H93.3091H93.3292H93.3493H93.3695H93.3898H93.4101H93.4305H93.4509H93.4714H93.4919H93.5125H93.5331H93.5538H93.5745H93.5953H93.6161H93.637H93.658H93.6789H93.7H93.7211H93.7422H93.7634H93.7846H93.8059H93.8273H93.8487H93.8701H93.8916H93.9131H93.9347H93.9564H93.9781H93.9998H94.0216H94.0434H94.0653H94.0873H94.1093H94.1313H94.1534H94.1755H94.1977H94.22H94.2422H94.2646H94.287H94.3094H94.3319H94.3544H94.377H94.3996H94.4223H94.445H94.4678H94.4906H94.5135H94.5364H94.5594H94.5824H94.6055H94.6286H94.6517H94.6749H94.6982H94.7215H94.7449H94.7683H94.7917H94.8152H94.8387H94.8623H94.886H94.9096H94.9334H94.9571H94.981H95.0048H95.0288H95.0527H95.0767H95.1008H95.1249H95.149H95.1732H95.1975H95.2218H95.2461H95.2705H95.2949H95.3194H95.3439H95.3685H95.3931H95.4177H95.4424H95.4672H95.492H95.5168H95.5417H95.5666H95.5916H95.6166H95.6417H95.6668H95.6919H95.7171H95.7424H95.7677H95.793H95.8184H95.8438H95.8692H95.8948H95.9203H95.9459H95.9715H95.9972H96.023H96.0487H96.0746H96.1004H96.1263H96.1523H96.1783H96.2043H96.2304H96.2565H96.2827H96.3089H96.3351H96.3614H96.3878H96.4141H96.4406H96.467H96.4935H96.5201H96.5467H96.5733H96.6H96.6267H96.6535H96.6803H96.7071H96.734H96.7609H96.7879H96.8149H96.842H96.8691H96.8962H96.9234H96.9506H96.9779H97.0052H97.0326H97.0599H97.0874H97.1148H97.1423H97.1699H97.1975H97.2251H97.2528H97.2805H97.3083H97.3361H97.3639H97.3918H97.4197H97.4477H97.4757H97.5037H97.5318H97.5599H97.588H97.6162H97.6445H97.6728H97.7011H97.7294H97.7578H97.7863H97.8147H97.8432H97.8718H97.9004H97.929H97.9577H97.9864H98.0151H98.0439H98.0728H98.1016H98.1305H98.1595H98.1884H98.2175H98.2465H98.2756H98.3047H98.3339H98.3631H98.3924H98.4216H98.451H98.4803H98.5097H98.5391H98.5686H98.5981H98.6277H98.6572H98.6869H98.7165H98.7462H98.7759H98.8057H98.8355H98.8654H98.8952H98.9252H98.9551H98.9851H99.0151H99.0452H99.0753H99.1054H99.1356H99.1658H99.196H99.2263H99.2566H99.287H99.3173H99.3478H99.3782H99.4087H99.4392H99.4698H99.5004H99.531H99.5617H99.5924H99.6231H99.6539H99.6847H99.7155H99.7464H99.7773H99.8083H99.8393H99.8703H99.9013H99.9324H99.9635H99.9947H100.026H100.057H100.088H100.12H100.151H100.182H100.214H100.245H100.277H100.308H100.34H100.371H100.403H100.434H100.466H100.498H100.529H100.561H100.593H100.625H100.657H100.688H100.72H100.752H100.784H100.816H100.848H100.88H100.913H100.945H100.977H101.009H101.041H101.074H101.106H101.138H101.171H101.203H101.235H101.268H101.3H101.333H101.365H101.398H101.431H101.463H101.496H101.529H101.561H101.594H101.627H101.66H101.693H101.726H101.758H101.791H101.824H101.857H101.89H101.924H101.957H101.99H102.023H102.056H102.089H102.123H102.156H102.189H102.223H102.256H102.289H102.323H102.356H102.39H102.423H102.457H102.49H102.524H102.557H102.591H102.625H102.659H102.692H102.726H102.76H102.794H102.827H102.861H102.895H102.929H102.963H102.997H103.031H103.065H103.099H103.133H103.168H103.202H103.236H103.27H103.304H103.339H103.373H103.407H103.442H103.476H103.51H103.545H103.579H103.614H103.648H103.683H103.717H103.752H103.786H103.821H103.856H103.89H103.925H103.96H103.995H104.029H104.064H104.099H104.134H104.169H104.204H104.239H104.274H104.309H104.344H104.379H104.414H104.449H104.484H104.519H104.554H104.589H104.625H104.66H104.695H104.73H104.766H104.801H104.836H104.872H104.907H104.943H104.978H105.013H105.049H105.084H105.12H105.156H105.191H105.227H105.262H105.298H105.334H105.369H105.405H105.441H105.477H105.513H105.548H105.584H105.62H105.656H105.692H105.728H105.764H105.8H105.836H105.872H105.908H105.944H105.98H106.016H106.052H106.088H106.124H106.161H106.197H106.233H106.269H106.306H106.342H106.378H106.415H106.451H106.487H106.524H106.56H106.596H106.633H106.669H106.706H106.742H106.779H106.816H106.852H106.889H106.925H106.962H106.999H107.035H107.072H107.109H107.145H107.182H107.219H107.256H107.293H107.329H107.366H107.403H107.44H107.477H107.514H107.551H107.588H107.625H107.662H107.699H107.736H107.773H107.81H107.847H107.884H107.921H107.958H107.996H108.033H108.07H108.107H108.144H108.182H108.219H108.256H108.293H108.33H108.368H108.405H108.442H108.479H108.516H108.553H108.59H108.627H108.664H108.701H108.738H108.775H108.812H108.849H108.886H108.923H108.959H108.996H109.033H109.07H109.107H109.143H109.18H109.217H109.254H109.29H109.327H109.364H109.4H109.437H109.473H109.51H109.546H109.583H109.619H109.656H109.692H109.729H109.765H109.802H109.838H109.874H109.911H109.947H109.983H110.02H110.056H110.092H110.128H110.165H110.201H110.237H110.273H110.309H110.345H110.381H110.417H110.453H110.489H110.525H110.561H110.597H110.633H110.669H110.705H110.741H110.776H110.812H110.848H110.884H110.919H110.955H110.991H111.027H111.062H111.098H111.133H111.169H111.204H111.24H111.275H111.311H111.346H111.382H111.417H111.453H111.488H111.523H111.559H111.594H111.629H111.664H111.7H111.735H111.77H111.805H111.84H111.875H111.91H111.945H111.98H112.015H112.05H112.085H112.12H112.155H112.19H112.225H112.26H112.294H112.329H112.364H112.399H112.433H112.468H112.503H112.537H112.572H112.606H112.641H112.675H112.71H112.744H112.779H112.813H112.847H112.882H112.916H112.95H112.985H113.019H113.053H113.087H113.121H113.156H113.19H113.224H113.258H113.292H113.326H113.36H113.394H113.428H113.461H113.495H113.529H113.563H113.597H113.63H113.664H113.698H113.731H113.765H113.799H113.832H113.866H113.899H113.933H113.966H114H114.033H114.066H114.1H114.133H114.166H114.2H114.233H114.266H114.299H114.332H114.365H114.398H114.431H114.464H114.497H114.53H114.563H114.596H114.629H114.662H114.695H114.727H114.76H114.793H114.826H114.858H114.891H114.923H114.956H114.989H115.021H115.053H115.086H115.118H115.151H115.183H115.215H115.248H115.28H115.312H115.344H115.376H115.408H115.441H115.473H115.505H115.537H115.569H115.6H115.632H115.664H115.696H115.728H115.76H115.791H115.823H115.855H115.886H115.918H115.949H115.981H116.012H116.044H116.075H116.107H116.138H116.169H116.201H116.232H116.263H116.294H116.325H116.357H116.388H116.419H116.45H116.481H116.512H116.542H116.573H116.604H116.635H116.666H116.697H116.727H116.758H116.789H116.819H116.85H116.88H116.911H116.941H116.972H117.002H117.032H117.063H117.093H117.123H117.153H117.184H117.214H117.244H117.274H117.304H117.334H117.364H117.394H117.424H117.453H117.483H117.513H117.543H117.572H117.602H117.632H117.661H117.691H117.72H117.75H117.779H117.809H117.838H117.867H117.897H117.926H117.955H117.984H118.013H118.042H118.071H118.1H118.129H118.158H118.187H118.216H118.245H118.274H118.303H118.331H118.36H118.389H118.417H118.446H118.474H118.503H118.531H118.559H118.588H118.616H118.644H118.673H118.701H118.729H118.757H118.785H118.813H118.841H118.869H118.897H118.925H118.953H118.981H119.008H119.036H119.064H119.091H119.119H119.147H119.174H119.202H119.229H119.256H119.284H119.311H119.338H119.366H119.393H119.42H119.447H119.474H119.501H119.528H119.555H119.582H119.609H119.635H119.662H119.689H119.716H119.742H119.769H119.795H119.822H119.848H119.875H119.901H119.928H119.954H119.98H120.006H120.032H120.059H120.085H120.111H120.137H120.163H120.189H120.214H120.24H120.266H120.292H120.317H120.343H120.369H120.394H120.42H120.445H120.471H120.496H120.521H120.547H120.572H120.597H120.622H120.647H120.672H120.697H120.722H120.747H120.772H120.797H120.822H120.846H120.871H120.896H120.92H120.945H120.97H120.994H121.018H121.043H121.067H121.091H121.116H121.14H121.164H121.188H121.212H121.236H121.26H121.284H121.308H121.332H121.356H121.379H121.403H121.427H121.45H121.474H121.497H121.521H121.544H121.567H121.591H121.614H121.637H121.66H121.683H121.707H121.73H121.752H121.775H121.798H121.821H121.844H121.867H121.889H121.912H121.935H121.957H121.98H122.002H122.024H122.047H122.069H122.091H122.113H122.136H122.158H122.18H122.202H122.224H122.245H122.267H122.289H122.311H122.333H122.354H122.376H122.397H122.419H122.44H122.462H122.483H122.504H122.526H122.547H122.568H122.589H122.61H122.631H122.652H122.673H122.694H122.714H122.735H122.756H122.776H122.797H122.818H122.838H122.858H122.879H122.899H122.919H122.94H122.96H122.98H123H123.02H123.04H123.06H123.08H123.099H123.119H123.139H123.158H123.178H123.198H123.217H123.237H123.256H123.275H123.294H123.314H123.333H123.352C124.56 83.5219 125.382 82.5672 125.219 81.5785C123.864 73.3725 116.734 67.1136 108.144 67.1136C99.5547 67.1136 92.425 73.3725 91.0701 81.5785Z" stroke="#001F5C" stroke-width="1.79614" stroke-linecap="round" stroke-linejoin="round"/>
<circle r="9.56503" transform="matrix(-1 0 0 1 108.145 107.145)" stroke="#001F5C" stroke-width="1.79614" stroke-linecap="round" stroke-linejoin="round"/>
<path d="M91.0701 135.159C90.9069 136.147 91.7292 137.102 92.937 137.102H92.9561H92.9753H92.9945H93.0137H93.033H93.0524H93.0718H93.0913H93.1109H93.1304H93.1501H93.1698H93.1895H93.2093H93.2291H93.249H93.269H93.289H93.3091H93.3292H93.3493H93.3695H93.3898H93.4101H93.4305H93.4509H93.4714H93.4919H93.5125H93.5331H93.5538H93.5745H93.5953H93.6161H93.637H93.658H93.6789H93.7H93.7211H93.7422H93.7634H93.7846H93.8059H93.8273H93.8487H93.8701H93.8916H93.9131H93.9347H93.9564H93.9781H93.9998H94.0216H94.0434H94.0653H94.0873H94.1093H94.1313H94.1534H94.1755H94.1977H94.22H94.2422H94.2646H94.287H94.3094H94.3319H94.3544H94.377H94.3996H94.4223H94.445H94.4678H94.4906H94.5135H94.5364H94.5594H94.5824H94.6055H94.6286H94.6517H94.6749H94.6982H94.7215H94.7449H94.7683H94.7917H94.8152H94.8387H94.8623H94.886H94.9096H94.9334H94.9571H94.981H95.0048H95.0288H95.0527H95.0767H95.1008H95.1249H95.149H95.1732H95.1975H95.2218H95.2461H95.2705H95.2949H95.3194H95.3439H95.3685H95.3931H95.4177H95.4424H95.4672H95.492H95.5168H95.5417H95.5666H95.5916H95.6166H95.6417H95.6668H95.6919H95.7171H95.7424H95.7677H95.793H95.8184H95.8438H95.8692H95.8948H95.9203H95.9459H95.9715H95.9972H96.023H96.0487H96.0746H96.1004H96.1263H96.1523H96.1783H96.2043H96.2304H96.2565H96.2827H96.3089H96.3351H96.3614H96.3878H96.4141H96.4406H96.467H96.4935H96.5201H96.5467H96.5733H96.6H96.6267H96.6535H96.6803H96.7071H96.734H96.7609H96.7879H96.8149H96.842H96.8691H96.8962H96.9234H96.9506H96.9779H97.0052H97.0326H97.0599H97.0874H97.1148H97.1423H97.1699H97.1975H97.2251H97.2528H97.2805H97.3083H97.3361H97.3639H97.3918H97.4197H97.4477H97.4757H97.5037H97.5318H97.5599H97.588H97.6162H97.6445H97.6728H97.7011H97.7294H97.7578H97.7863H97.8147H97.8432H97.8718H97.9004H97.929H97.9577H97.9864H98.0151H98.0439H98.0728H98.1016H98.1305H98.1595H98.1884H98.2175H98.2465H98.2756H98.3047H98.3339H98.3631H98.3924H98.4216H98.451H98.4803H98.5097H98.5391H98.5686H98.5981H98.6277H98.6572H98.6869H98.7165H98.7462H98.7759H98.8057H98.8355H98.8654H98.8952H98.9252H98.9551H98.9851H99.0151H99.0452H99.0753H99.1054H99.1356H99.1658H99.196H99.2263H99.2566H99.287H99.3173H99.3478H99.3782H99.4087H99.4392H99.4698H99.5004H99.531H99.5617H99.5924H99.6231H99.6539H99.6847H99.7155H99.7464H99.7773H99.8083H99.8393H99.8703H99.9013H99.9324H99.9635H99.9947H100.026H100.057H100.088H100.12H100.151H100.182H100.214H100.245H100.277H100.308H100.34H100.371H100.403H100.434H100.466H100.498H100.529H100.561H100.593H100.625H100.657H100.688H100.72H100.752H100.784H100.816H100.848H100.88H100.913H100.945H100.977H101.009H101.041H101.074H101.106H101.138H101.171H101.203H101.235H101.268H101.3H101.333H101.365H101.398H101.431H101.463H101.496H101.529H101.561H101.594H101.627H101.66H101.693H101.726H101.758H101.791H101.824H101.857H101.89H101.924H101.957H101.99H102.023H102.056H102.089H102.123H102.156H102.189H102.223H102.256H102.289H102.323H102.356H102.39H102.423H102.457H102.49H102.524H102.557H102.591H102.625H102.659H102.692H102.726H102.76H102.794H102.827H102.861H102.895H102.929H102.963H102.997H103.031H103.065H103.099H103.133H103.168H103.202H103.236H103.27H103.304H103.339H103.373H103.407H103.442H103.476H103.51H103.545H103.579H103.614H103.648H103.683H103.717H103.752H103.786H103.821H103.856H103.89H103.925H103.96H103.995H104.029H104.064H104.099H104.134H104.169H104.204H104.239H104.274H104.309H104.344H104.379H104.414H104.449H104.484H104.519H104.554H104.589H104.625H104.66H104.695H104.73H104.766H104.801H104.836H104.872H104.907H104.943H104.978H105.013H105.049H105.084H105.12H105.156H105.191H105.227H105.262H105.298H105.334H105.369H105.405H105.441H105.477H105.513H105.548H105.584H105.62H105.656H105.692H105.728H105.764H105.8H105.836H105.872H105.908H105.944H105.98H106.016H106.052H106.088H106.124H106.161H106.197H106.233H106.269H106.306H106.342H106.378H106.415H106.451H106.487H106.524H106.56H106.596H106.633H106.669H106.706H106.742H106.779H106.816H106.852H106.889H106.925H106.962H106.999H107.035H107.072H107.109H107.145H107.182H107.219H107.256H107.293H107.329H107.366H107.403H107.44H107.477H107.514H107.551H107.588H107.625H107.662H107.699H107.736H107.773H107.81H107.847H107.884H107.921H107.958H107.996H108.033H108.07H108.107H108.144H108.182H108.219H108.256H108.293H108.33H108.368H108.405H108.442H108.479H108.516H108.553H108.59H108.627H108.664H108.701H108.738H108.775H108.812H108.849H108.886H108.923H108.959H108.996H109.033H109.07H109.107H109.143H109.18H109.217H109.254H109.29H109.327H109.364H109.4H109.437H109.473H109.51H109.546H109.583H109.619H109.656H109.692H109.729H109.765H109.802H109.838H109.874H109.911H109.947H109.983H110.02H110.056H110.092H110.128H110.165H110.201H110.237H110.273H110.309H110.345H110.381H110.417H110.453H110.489H110.525H110.561H110.597H110.633H110.669H110.705H110.741H110.776H110.812H110.848H110.884H110.919H110.955H110.991H111.027H111.062H111.098H111.133H111.169H111.204H111.24H111.275H111.311H111.346H111.382H111.417H111.453H111.488H111.523H111.559H111.594H111.629H111.664H111.7H111.735H111.77H111.805H111.84H111.875H111.91H111.945H111.98H112.015H112.05H112.085H112.12H112.155H112.19H112.225H112.26H112.294H112.329H112.364H112.399H112.433H112.468H112.503H112.537H112.572H112.606H112.641H112.675H112.71H112.744H112.779H112.813H112.847H112.882H112.916H112.95H112.985H113.019H113.053H113.087H113.121H113.156H113.19H113.224H113.258H113.292H113.326H113.36H113.394H113.428H113.461H113.495H113.529H113.563H113.597H113.63H113.664H113.698H113.731H113.765H113.799H113.832H113.866H113.899H113.933H113.966H114H114.033H114.066H114.1H114.133H114.166H114.2H114.233H114.266H114.299H114.332H114.365H114.398H114.431H114.464H114.497H114.53H114.563H114.596H114.629H114.662H114.695H114.727H114.76H114.793H114.826H114.858H114.891H114.923H114.956H114.989H115.021H115.053H115.086H115.118H115.151H115.183H115.215H115.248H115.28H115.312H115.344H115.376H115.408H115.441H115.473H115.505H115.537H115.569H115.6H115.632H115.664H115.696H115.728H115.76H115.791H115.823H115.855H115.886H115.918H115.949H115.981H116.012H116.044H116.075H116.107H116.138H116.169H116.201H116.232H116.263H116.294H116.325H116.357H116.388H116.419H116.45H116.481H116.512H116.542H116.573H116.604H116.635H116.666H116.697H116.727H116.758H116.789H116.819H116.85H116.88H116.911H116.941H116.972H117.002H117.032H117.063H117.093H117.123H117.153H117.184H117.214H117.244H117.274H117.304H117.334H117.364H117.394H117.424H117.453H117.483H117.513H117.543H117.572H117.602H117.632H117.661H117.691H117.72H117.75H117.779H117.809H117.838H117.867H117.897H117.926H117.955H117.984H118.013H118.042H118.071H118.1H118.129H118.158H118.187H118.216H118.245H118.274H118.303H118.331H118.36H118.389H118.417H118.446H118.474H118.503H118.531H118.559H118.588H118.616H118.644H118.673H118.701H118.729H118.757H118.785H118.813H118.841H118.869H118.897H118.925H118.953H118.981H119.008H119.036H119.064H119.091H119.119H119.147H119.174H119.202H119.229H119.256H119.284H119.311H119.338H119.366H119.393H119.42H119.447H119.474H119.501H119.528H119.555H119.582H119.609H119.635H119.662H119.689H119.716H119.742H119.769H119.795H119.822H119.848H119.875H119.901H119.928H119.954H119.98H120.006H120.032H120.059H120.085H120.111H120.137H120.163H120.189H120.214H120.24H120.266H120.292H120.317H120.343H120.369H120.394H120.42H120.445H120.471H120.496H120.521H120.547H120.572H120.597H120.622H120.647H120.672H120.697H120.722H120.747H120.772H120.797H120.822H120.846H120.871H120.896H120.92H120.945H120.97H120.994H121.018H121.043H121.067H121.091H121.116H121.14H121.164H121.188H121.212H121.236H121.26H121.284H121.308H121.332H121.356H121.379H121.403H121.427H121.45H121.474H121.497H121.521H121.544H121.567H121.591H121.614H121.637H121.66H121.683H121.707H121.73H121.752H121.775H121.798H121.821H121.844H121.867H121.889H121.912H121.935H121.957H121.98H122.002H122.024H122.047H122.069H122.091H122.113H122.136H122.158H122.18H122.202H122.224H122.245H122.267H122.289H122.311H122.333H122.354H122.376H122.397H122.419H122.44H122.462H122.483H122.504H122.526H122.547H122.568H122.589H122.61H122.631H122.652H122.673H122.694H122.714H122.735H122.756H122.776H122.797H122.818H122.838H122.858H122.879H122.899H122.919H122.94H122.96H122.98H123H123.02H123.04H123.06H123.08H123.099H123.119H123.139H123.158H123.178H123.198H123.217H123.237H123.256H123.275H123.294H123.314H123.333H123.352C124.56 137.102 125.382 136.147 125.219 135.159C123.864 126.953 116.734 120.694 108.144 120.694C99.5547 120.694 92.425 126.953 91.0701 135.159Z" stroke="#001F5C" stroke-width="1.79614" stroke-linecap="round" stroke-linejoin="round"/>
<circle r="9.56503" transform="matrix(-1 0 0 1 156.085 53.565)" stroke="#001F5C" stroke-width="1.79614" stroke-linecap="round" stroke-linejoin="round"/>
<path d="M139.01 81.5785C138.847 82.5672 139.669 83.5219 140.877 83.5219H140.896H140.915H140.935H140.954H140.973H140.992H141.012H141.031H141.051H141.07H141.09H141.11H141.13H141.149H141.169H141.189H141.209H141.229H141.249H141.269H141.289H141.31H141.33H141.35H141.371H141.391H141.411H141.432H141.453H141.473H141.494H141.515H141.535H141.556H141.577H141.598H141.619H141.64H141.661H141.682H141.703H141.725H141.746H141.767H141.789H141.81H141.832H141.853H141.875H141.896H141.918H141.94H141.962H141.984H142.005H142.027H142.049H142.071H142.093H142.116H142.138H142.16H142.182H142.205H142.227H142.249H142.272H142.294H142.317H142.34H142.362H142.385H142.408H142.431H142.454H142.476H142.499H142.522H142.546H142.569H142.592H142.615H142.638H142.662H142.685H142.708H142.732H142.755H142.779H142.802H142.826H142.85H142.873H142.897H142.921H142.945H142.969H142.993H143.017H143.041H143.065H143.089H143.113H143.138H143.162H143.186H143.211H143.235H143.259H143.284H143.309H143.333H143.358H143.382H143.407H143.432H143.457H143.482H143.507H143.532H143.557H143.582H143.607H143.632H143.657H143.682H143.708H143.733H143.758H143.784H143.809H143.835H143.86H143.886H143.912H143.937H143.963H143.989H144.015H144.04H144.066H144.092H144.118H144.144H144.17H144.197H144.223H144.249H144.275H144.301H144.328H144.354H144.381H144.407H144.434H144.46H144.487H144.513H144.54H144.567H144.594H144.62H144.647H144.674H144.701H144.728H144.755H144.782H144.809H144.836H144.863H144.891H144.918H144.945H144.973H145H145.027H145.055H145.082H145.11H145.138H145.165H145.193H145.221H145.248H145.276H145.304H145.332H145.36H145.388H145.416H145.444H145.472H145.5H145.528H145.556H145.585H145.613H145.641H145.669H145.698H145.726H145.755H145.783H145.812H145.84H145.869H145.898H145.926H145.955H145.984H146.013H146.042H146.071H146.1H146.128H146.158H146.187H146.216H146.245H146.274H146.303H146.332H146.362H146.391H146.42H146.45H146.479H146.509H146.538H146.568H146.597H146.627H146.657H146.686H146.716H146.746H146.776H146.805H146.835H146.865H146.895H146.925H146.955H146.985H147.015H147.045H147.076H147.106H147.136H147.166H147.197H147.227H147.257H147.288H147.318H147.349H147.379H147.41H147.44H147.471H147.502H147.532H147.563H147.594H147.625H147.656H147.686H147.717H147.748H147.779H147.81H147.841H147.872H147.904H147.935H147.966H147.997H148.028H148.06H148.091H148.122H148.154H148.185H148.217H148.248H148.28H148.311H148.343H148.374H148.406H148.438H148.469H148.501H148.533H148.565H148.597H148.629H148.66H148.692H148.724H148.756H148.788H148.821H148.853H148.885H148.917H148.949H148.981H149.014H149.046H149.078H149.111H149.143H149.176H149.208H149.24H149.273H149.306H149.338H149.371H149.403H149.436H149.469H149.501H149.534H149.567H149.6H149.633H149.666H149.699H149.732H149.764H149.797H149.831H149.864H149.897H149.93H149.963H149.996H150.029H150.063H150.096H150.129H150.163H150.196H150.229H150.263H150.296H150.33H150.363H150.397H150.43H150.464H150.498H150.531H150.565H150.599H150.632H150.666H150.7H150.734H150.768H150.801H150.835H150.869H150.903H150.937H150.971H151.005H151.039H151.073H151.108H151.142H151.176H151.21H151.244H151.279H151.313H151.347H151.382H151.416H151.45H151.485H151.519H151.554H151.588H151.623H151.657H151.692H151.726H151.761H151.796H151.83H151.865H151.9H151.935H151.969H152.004H152.039H152.074H152.109H152.144H152.179H152.214H152.249H152.284H152.319H152.354H152.389H152.424H152.459H152.494H152.529H152.565H152.6H152.635H152.67H152.706H152.741H152.776H152.812H152.847H152.883H152.918H152.954H152.989H153.025H153.06H153.096H153.131H153.167H153.202H153.238H153.274H153.31H153.345H153.381H153.417H153.453H153.488H153.524H153.56H153.596H153.632H153.668H153.704H153.74H153.776H153.812H153.848H153.884H153.92H153.956H153.992H154.028H154.064H154.101H154.137H154.173H154.209H154.246H154.282H154.318H154.355H154.391H154.427H154.464H154.5H154.537H154.573H154.609H154.646H154.683H154.719H154.756H154.792H154.829H154.865H154.902H154.939H154.975H155.012H155.049H155.086H155.122H155.159H155.196H155.233H155.27H155.306H155.343H155.38H155.417H155.454H155.491H155.528H155.565H155.602H155.639H155.676H155.713H155.75H155.787H155.824H155.861H155.899H155.936H155.973H156.01H156.047H156.085H156.122H156.159H156.196H156.233H156.271H156.308H156.345H156.382H156.419H156.456H156.493H156.53H156.567H156.604H156.641H156.678H156.715H156.752H156.789H156.826H156.863H156.9H156.936H156.973H157.01H157.047H157.084H157.12H157.157H157.194H157.23H157.267H157.304H157.34H157.377H157.413H157.45H157.487H157.523H157.56H157.596H157.632H157.669H157.705H157.742H157.778H157.814H157.851H157.887H157.923H157.96H157.996H158.032H158.068H158.105H158.141H158.177H158.213H158.249H158.285H158.321H158.357H158.393H158.429H158.465H158.501H158.537H158.573H158.609H158.645H158.681H158.716H158.752H158.788H158.824H158.86H158.895H158.931H158.967H159.002H159.038H159.073H159.109H159.145H159.18H159.216H159.251H159.286H159.322H159.357H159.393H159.428H159.463H159.499H159.534H159.569H159.604H159.64H159.675H159.71H159.745H159.78H159.815H159.85H159.885H159.92H159.955H159.99H160.025H160.06H160.095H160.13H160.165H160.2H160.234H160.269H160.304H160.339H160.373H160.408H160.443H160.477H160.512H160.546H160.581H160.615H160.65H160.684H160.719H160.753H160.787H160.822H160.856H160.89H160.925H160.959H160.993H161.027H161.061H161.096H161.13H161.164H161.198H161.232H161.266H161.3H161.334H161.368H161.401H161.435H161.469H161.503H161.537H161.57H161.604H161.638H161.672H161.705H161.739H161.772H161.806H161.839H161.873H161.906H161.94H161.973H162.006H162.04H162.073H162.106H162.14H162.173H162.206H162.239H162.272H162.305H162.339H162.372H162.405H162.438H162.47H162.503H162.536H162.569H162.602H162.635H162.668H162.7H162.733H162.766H162.798H162.831H162.864H162.896H162.929H162.961H162.994H163.026H163.058H163.091H163.123H163.155H163.188H163.22H163.252H163.284H163.316H163.349H163.381H163.413H163.445H163.477H163.509H163.54H163.572H163.604H163.636H163.668H163.7H163.731H163.763H163.795H163.826H163.858H163.889H163.921H163.952H163.984H164.015H164.047H164.078H164.109H164.141H164.172H164.203H164.234H164.265H164.297H164.328H164.359H164.39H164.421H164.452H164.483H164.513H164.544H164.575H164.606H164.637H164.667H164.698H164.729H164.759H164.79H164.82H164.851H164.881H164.912H164.942H164.972H165.003H165.033H165.063H165.093H165.124H165.154H165.184H165.214H165.244H165.274H165.304H165.334H165.364H165.393H165.423H165.453H165.483H165.512H165.542H165.572H165.601H165.631H165.66H165.69H165.719H165.749H165.778H165.807H165.837H165.866H165.895H165.924H165.953H165.982H166.012H166.041H166.07H166.098H166.127H166.156H166.185H166.214H166.243H166.271H166.3H166.329H166.357H166.386H166.414H166.443H166.471H166.5H166.528H166.556H166.584H166.613H166.641H166.669H166.697H166.725H166.753H166.781H166.809H166.837H166.865H166.893H166.921H166.948H166.976H167.004H167.031H167.059H167.087H167.114H167.142H167.169H167.196H167.224H167.251H167.278H167.306H167.333H167.36H167.387H167.414H167.441H167.468H167.495H167.522H167.549H167.576H167.602H167.629H167.656H167.682H167.709H167.735H167.762H167.788H167.815H167.841H167.868H167.894H167.92H167.946H167.972H167.999H168.025H168.051H168.077H168.103H168.129H168.154H168.18H168.206H168.232H168.257H168.283H168.309H168.334H168.36H168.385H168.411H168.436H168.461H168.487H168.512H168.537H168.562H168.587H168.612H168.637H168.662H168.687H168.712H168.737H168.762H168.787H168.811H168.836H168.861H168.885H168.91H168.934H168.959H168.983H169.007H169.032H169.056H169.08H169.104H169.128H169.152H169.176H169.2H169.224H169.248H169.272H169.296H169.319H169.343H169.367H169.39H169.414H169.437H169.461H169.484H169.507H169.531H169.554H169.577H169.6H169.624H169.647H169.67H169.693H169.715H169.738H169.761H169.784H169.807H169.829H169.852H169.875H169.897H169.92H169.942H169.964H169.987H170.009H170.031H170.053H170.076H170.098H170.12H170.142H170.164H170.186H170.207H170.229H170.251H170.273H170.294H170.316H170.337H170.359H170.38H170.402H170.423H170.444H170.466H170.487H170.508H170.529H170.55H170.571H170.592H170.613H170.634H170.654H170.675H170.696H170.716H170.737H170.758H170.778H170.798H170.819H170.839H170.859H170.88H170.9H170.92H170.94H170.96H170.98H171H171.02H171.039H171.059H171.079H171.099H171.118H171.138H171.157H171.177H171.196H171.215H171.235H171.254H171.273H171.292C172.5 83.5219 173.322 82.5672 173.159 81.5785C171.804 73.3725 164.674 67.1136 156.085 67.1136C147.495 67.1136 140.365 73.3725 139.01 81.5785Z" stroke="#001F5C" stroke-width="1.79614" stroke-linecap="round" stroke-linejoin="round"/>
<circle r="9.56503" transform="matrix(-1 0 0 1 156.085 107.145)" stroke="#001F5C" stroke-width="1.79614" stroke-linecap="round" stroke-linejoin="round"/>
<path d="M139.01 135.159C138.847 136.147 139.669 137.102 140.877 137.102H140.896H140.915H140.935H140.954H140.973H140.992H141.012H141.031H141.051H141.07H141.09H141.11H141.13H141.149H141.169H141.189H141.209H141.229H141.249H141.269H141.289H141.31H141.33H141.35H141.371H141.391H141.411H141.432H141.453H141.473H141.494H141.515H141.535H141.556H141.577H141.598H141.619H141.64H141.661H141.682H141.703H141.725H141.746H141.767H141.789H141.81H141.832H141.853H141.875H141.896H141.918H141.94H141.962H141.984H142.005H142.027H142.049H142.071H142.093H142.116H142.138H142.16H142.182H142.205H142.227H142.249H142.272H142.294H142.317H142.34H142.362H142.385H142.408H142.431H142.454H142.476H142.499H142.522H142.546H142.569H142.592H142.615H142.638H142.662H142.685H142.708H142.732H142.755H142.779H142.802H142.826H142.85H142.873H142.897H142.921H142.945H142.969H142.993H143.017H143.041H143.065H143.089H143.113H143.138H143.162H143.186H143.211H143.235H143.259H143.284H143.309H143.333H143.358H143.382H143.407H143.432H143.457H143.482H143.507H143.532H143.557H143.582H143.607H143.632H143.657H143.682H143.708H143.733H143.758H143.784H143.809H143.835H143.86H143.886H143.912H143.937H143.963H143.989H144.015H144.04H144.066H144.092H144.118H144.144H144.17H144.197H144.223H144.249H144.275H144.301H144.328H144.354H144.381H144.407H144.434H144.46H144.487H144.513H144.54H144.567H144.594H144.62H144.647H144.674H144.701H144.728H144.755H144.782H144.809H144.836H144.863H144.891H144.918H144.945H144.973H145H145.027H145.055H145.082H145.11H145.138H145.165H145.193H145.221H145.248H145.276H145.304H145.332H145.36H145.388H145.416H145.444H145.472H145.5H145.528H145.556H145.585H145.613H145.641H145.669H145.698H145.726H145.755H145.783H145.812H145.84H145.869H145.898H145.926H145.955H145.984H146.013H146.042H146.071H146.1H146.128H146.158H146.187H146.216H146.245H146.274H146.303H146.332H146.362H146.391H146.42H146.45H146.479H146.509H146.538H146.568H146.597H146.627H146.657H146.686H146.716H146.746H146.776H146.805H146.835H146.865H146.895H146.925H146.955H146.985H147.015H147.045H147.076H147.106H147.136H147.166H147.197H147.227H147.257H147.288H147.318H147.349H147.379H147.41H147.44H147.471H147.502H147.532H147.563H147.594H147.625H147.656H147.686H147.717H147.748H147.779H147.81H147.841H147.872H147.904H147.935H147.966H147.997H148.028H148.06H148.091H148.122H148.154H148.185H148.217H148.248H148.28H148.311H148.343H148.374H148.406H148.438H148.469H148.501H148.533H148.565H148.597H148.629H148.66H148.692H148.724H148.756H148.788H148.821H148.853H148.885H148.917H148.949H148.981H149.014H149.046H149.078H149.111H149.143H149.176H149.208H149.24H149.273H149.306H149.338H149.371H149.403H149.436H149.469H149.501H149.534H149.567H149.6H149.633H149.666H149.699H149.732H149.764H149.797H149.831H149.864H149.897H149.93H149.963H149.996H150.029H150.063H150.096H150.129H150.163H150.196H150.229H150.263H150.296H150.33H150.363H150.397H150.43H150.464H150.498H150.531H150.565H150.599H150.632H150.666H150.7H150.734H150.768H150.801H150.835H150.869H150.903H150.937H150.971H151.005H151.039H151.073H151.108H151.142H151.176H151.21H151.244H151.279H151.313H151.347H151.382H151.416H151.45H151.485H151.519H151.554H151.588H151.623H151.657H151.692H151.726H151.761H151.796H151.83H151.865H151.9H151.935H151.969H152.004H152.039H152.074H152.109H152.144H152.179H152.214H152.249H152.284H152.319H152.354H152.389H152.424H152.459H152.494H152.529H152.565H152.6H152.635H152.67H152.706H152.741H152.776H152.812H152.847H152.883H152.918H152.954H152.989H153.025H153.06H153.096H153.131H153.167H153.202H153.238H153.274H153.31H153.345H153.381H153.417H153.453H153.488H153.524H153.56H153.596H153.632H153.668H153.704H153.74H153.776H153.812H153.848H153.884H153.92H153.956H153.992H154.028H154.064H154.101H154.137H154.173H154.209H154.246H154.282H154.318H154.355H154.391H154.427H154.464H154.5H154.537H154.573H154.609H154.646H154.683H154.719H154.756H154.792H154.829H154.865H154.902H154.939H154.975H155.012H155.049H155.086H155.122H155.159H155.196H155.233H155.27H155.306H155.343H155.38H155.417H155.454H155.491H155.528H155.565H155.602H155.639H155.676H155.713H155.75H155.787H155.824H155.861H155.899H155.936H155.973H156.01H156.047H156.085H156.122H156.159H156.196H156.233H156.271H156.308H156.345H156.382H156.419H156.456H156.493H156.53H156.567H156.604H156.641H156.678H156.715H156.752H156.789H156.826H156.863H156.9H156.936H156.973H157.01H157.047H157.084H157.12H157.157H157.194H157.23H157.267H157.304H157.34H157.377H157.413H157.45H157.487H157.523H157.56H157.596H157.632H157.669H157.705H157.742H157.778H157.814H157.851H157.887H157.923H157.96H157.996H158.032H158.068H158.105H158.141H158.177H158.213H158.249H158.285H158.321H158.357H158.393H158.429H158.465H158.501H158.537H158.573H158.609H158.645H158.681H158.716H158.752H158.788H158.824H158.86H158.895H158.931H158.967H159.002H159.038H159.073H159.109H159.145H159.18H159.216H159.251H159.286H159.322H159.357H159.393H159.428H159.463H159.499H159.534H159.569H159.604H159.64H159.675H159.71H159.745H159.78H159.815H159.85H159.885H159.92H159.955H159.99H160.025H160.06H160.095H160.13H160.165H160.2H160.234H160.269H160.304H160.339H160.373H160.408H160.443H160.477H160.512H160.546H160.581H160.615H160.65H160.684H160.719H160.753H160.787H160.822H160.856H160.89H160.925H160.959H160.993H161.027H161.061H161.096H161.13H161.164H161.198H161.232H161.266H161.3H161.334H161.368H161.401H161.435H161.469H161.503H161.537H161.57H161.604H161.638H161.672H161.705H161.739H161.772H161.806H161.839H161.873H161.906H161.94H161.973H162.006H162.04H162.073H162.106H162.14H162.173H162.206H162.239H162.272H162.305H162.339H162.372H162.405H162.438H162.47H162.503H162.536H162.569H162.602H162.635H162.668H162.7H162.733H162.766H162.798H162.831H162.864H162.896H162.929H162.961H162.994H163.026H163.058H163.091H163.123H163.155H163.188H163.22H163.252H163.284H163.316H163.349H163.381H163.413H163.445H163.477H163.509H163.54H163.572H163.604H163.636H163.668H163.7H163.731H163.763H163.795H163.826H163.858H163.889H163.921H163.952H163.984H164.015H164.047H164.078H164.109H164.141H164.172H164.203H164.234H164.265H164.297H164.328H164.359H164.39H164.421H164.452H164.483H164.513H164.544H164.575H164.606H164.637H164.667H164.698H164.729H164.759H164.79H164.82H164.851H164.881H164.912H164.942H164.972H165.003H165.033H165.063H165.093H165.124H165.154H165.184H165.214H165.244H165.274H165.304H165.334H165.364H165.393H165.423H165.453H165.483H165.512H165.542H165.572H165.601H165.631H165.66H165.69H165.719H165.749H165.778H165.807H165.837H165.866H165.895H165.924H165.953H165.982H166.012H166.041H166.07H166.098H166.127H166.156H166.185H166.214H166.243H166.271H166.3H166.329H166.357H166.386H166.414H166.443H166.471H166.5H166.528H166.556H166.584H166.613H166.641H166.669H166.697H166.725H166.753H166.781H166.809H166.837H166.865H166.893H166.921H166.948H166.976H167.004H167.031H167.059H167.087H167.114H167.142H167.169H167.196H167.224H167.251H167.278H167.306H167.333H167.36H167.387H167.414H167.441H167.468H167.495H167.522H167.549H167.576H167.602H167.629H167.656H167.682H167.709H167.735H167.762H167.788H167.815H167.841H167.868H167.894H167.92H167.946H167.972H167.999H168.025H168.051H168.077H168.103H168.129H168.154H168.18H168.206H168.232H168.257H168.283H168.309H168.334H168.36H168.385H168.411H168.436H168.461H168.487H168.512H168.537H168.562H168.587H168.612H168.637H168.662H168.687H168.712H168.737H168.762H168.787H168.811H168.836H168.861H168.885H168.91H168.934H168.959H168.983H169.007H169.032H169.056H169.08H169.104H169.128H169.152H169.176H169.2H169.224H169.248H169.272H169.296H169.319H169.343H169.367H169.39H169.414H169.437H169.461H169.484H169.507H169.531H169.554H169.577H169.6H169.624H169.647H169.67H169.693H169.715H169.738H169.761H169.784H169.807H169.829H169.852H169.875H169.897H169.92H169.942H169.964H169.987H170.009H170.031H170.053H170.076H170.098H170.12H170.142H170.164H170.186H170.207H170.229H170.251H170.273H170.294H170.316H170.337H170.359H170.38H170.402H170.423H170.444H170.466H170.487H170.508H170.529H170.55H170.571H170.592H170.613H170.634H170.654H170.675H170.696H170.716H170.737H170.758H170.778H170.798H170.819H170.839H170.859H170.88H170.9H170.92H170.94H170.96H170.98H171H171.02H171.039H171.059H171.079H171.099H171.118H171.138H171.157H171.177H171.196H171.215H171.235H171.254H171.273H171.292C172.5 137.102 173.322 136.147 173.159 135.159C171.804 126.953 164.674 120.694 156.085 120.694C147.495 120.694 140.365 126.953 139.01 135.159Z" stroke="#001F5C" stroke-width="1.79614" stroke-linecap="round" stroke-linejoin="round"/>
</svg>
