<svg version="1.1" xmlns="http://www.w3.org/2000/svg" xmlns:xlink="http://www.w3.org/1999/xlink" width="1425.419921875" height="489"><defs/><g><g transform="translate(-38,-22) scale(1,1)"><path fill="#C0C0C0" stroke="none" d="M 1334.7099609375 209.5 C 1334.7099609375 203.1487248 1339.8586857375 198 1346.2099609375 198 C 1352.5612361375 198 1357.7099609375 203.1487248 1357.7099609375 209.5 C 1357.7099609375 215.8512752 1352.5612361375 221 1346.2099609375 221 C 1339.8586857375 221 1334.7099609375 215.8512752 1334.7099609375 209.5 Z" opacity="0.2"/></g><g transform="translate(-38,-22) scale(1,1)"><path fill="#ffffff" stroke="none" d="M 1327.7099609375 202.5 C 1327.7099609375 196.1487248 1332.8586857375 191 1339.2099609375 191 C 1345.5612361375 191 1350.7099609375 196.1487248 1350.7099609375 202.5 C 1350.7099609375 208.8512752 1345.5612361375 214 1339.2099609375 214 C 1332.8586857375 214 1327.7099609375 208.8512752 1327.7099609375 202.5 Z"/></g><g transform="translate(-38,-22) scale(1,1)"><path fill="none" stroke="#000000" d="M 1327.7099609375 202.5 C 1327.7099609375 196.1487248 1332.8586857375 191 1339.2099609375 191 C 1345.5612361375 191 1350.7099609375 196.1487248 1350.7099609375 202.5 C 1350.7099609375 208.8512752 1345.5612361375 214 1339.2099609375 214 C 1332.8586857375 214 1327.7099609375 208.8512752 1327.7099609375 202.5 Z" stroke-miterlimit="10"/></g><g transform="translate(-38,-22) scale(1,1)"><g><path fill="none" stroke="none"/><text fill="#000000" stroke="none" font-family="Arial" font-size="13px" font-style="normal" font-weight="bold" text-decoration="none" x="1319.33544921875" y="233.5">IPlugin</text></g></g><g transform="translate(-38,-22) scale(1,1)"><path fill="#C0C0C0" stroke="none" d="M 1095.720458984375 209.5 C 1095.720458984375 203.1487248 1100.869183784375 198 1107.220458984375 198 C 1113.571734184375 198 1118.720458984375 203.1487248 1118.720458984375 209.5 C 1118.720458984375 215.8512752 1113.571734184375 221 1107.220458984375 221 C 1100.869183784375 221 1095.720458984375 215.8512752 1095.720458984375 209.5 Z" opacity="0.2"/></g><g transform="translate(-38,-22) scale(1,1)"><path fill="#ffffff" stroke="none" d="M 1088.720458984375 202.5 C 1088.720458984375 196.1487248 1093.869183784375 191 1100.220458984375 191 C 1106.571734184375 191 1111.720458984375 196.1487248 1111.720458984375 202.5 C 1111.720458984375 208.8512752 1106.571734184375 214 1100.220458984375 214 C 1093.869183784375 214 1088.720458984375 208.8512752 1088.720458984375 202.5 Z"/></g><g transform="translate(-38,-22) scale(1,1)"><path fill="none" stroke="#000000" d="M 1088.720458984375 202.5 C 1088.720458984375 196.1487248 1093.869183784375 191 1100.220458984375 191 C 1106.571734184375 191 1111.720458984375 196.1487248 1111.720458984375 202.5 C 1111.720458984375 208.8512752 1106.571734184375 214 1100.220458984375 214 C 1093.869183784375 214 1088.720458984375 208.8512752 1088.720458984375 202.5 Z" stroke-miterlimit="10"/></g><g transform="translate(-38,-22) scale(1,1)"><g><path fill="none" stroke="none"/><text fill="#000000" stroke="none" font-family="Arial" font-size="13px" font-style="normal" font-weight="bold" text-decoration="none" x="1063.359619140625" y="233.5">IPluginSetup</text></g></g><g transform="translate(-38,-22) scale(1,1)"><path fill="#C0C0C0" stroke="none" d="M 342.7099609375 209.5 C 342.7099609375 203.1487248 347.8586857375 198 354.2099609375 198 C 360.5612361375 198 365.7099609375 203.1487248 365.7099609375 209.5 C 365.7099609375 215.8512752 360.5612361375 221 354.2099609375 221 C 347.8586857375 221 342.7099609375 215.8512752 342.7099609375 209.5 Z" opacity="0.2"/></g><g transform="translate(-38,-22) scale(1,1)"><path fill="#ffffff" stroke="none" d="M 335.7099609375 202.5 C 335.7099609375 196.1487248 340.8586857375 191 347.2099609375 191 C 353.5612361375 191 358.7099609375 196.1487248 358.7099609375 202.5 C 358.7099609375 208.8512752 353.5612361375 214 347.2099609375 214 C 340.8586857375 214 335.7099609375 208.8512752 335.7099609375 202.5 Z"/></g><g transform="translate(-38,-22) scale(1,1)"><path fill="none" stroke="#000000" d="M 335.7099609375 202.5 C 335.7099609375 196.1487248 340.8586857375 191 347.2099609375 191 C 353.5612361375 191 358.7099609375 196.1487248 358.7099609375 202.5 C 358.7099609375 208.8512752 353.5612361375 214 347.2099609375 214 C 340.8586857375 214 335.7099609375 208.8512752 335.7099609375 202.5 Z" stroke-miterlimit="10"/></g><g transform="translate(-38,-22) scale(1,1)"><g><path fill="none" stroke="none"/><text fill="#000000" stroke="none" font-family="Arial" font-size="13px" font-style="normal" font-weight="bold" text-decoration="none" x="331.318603515625" y="233.5">IDAO</text></g></g><g transform="translate(-38,-22) scale(1,1)"><rect fill="#C0C0C0" stroke="none" x="570" y="423" width="148.419921875" height="44" opacity="0.2"/></g><g transform="translate(-38,-22) scale(1,1)"><rect fill="#ffffff" stroke="none" x="563" y="416" width="148.419921875" height="44"/></g><g transform="translate(-38,-22) scale(1,1)"><path fill="none" stroke="#000000" d="M 563 416 L 711.419921875 416 L 711.419921875 460 L 563 460 L 563 416 Z Z" stroke-miterlimit="10"/></g><g transform="translate(-38,-22) scale(1,1)"><path fill="none" stroke="#000000" d="M 563 441 L 711.419921875 441" stroke-miterlimit="10"/></g><g transform="translate(-38,-22) scale(1,1)"><path fill="none" stroke="#000000" d="M 563 451 L 711.419921875 451" stroke-miterlimit="10"/></g><g transform="translate(-38,-22) scale(1,1)"><g><path fill="none" stroke="none"/><text fill="#000000" stroke="none" font-family="Arial" font-size="13px" font-style="normal" font-weight="bold" text-decoration="none" x="572.8955078125" y="435.5">PluginSetupProcessor</text></g></g><g transform="translate(-38,-22) scale(1,1)"><rect fill="#C0C0C0" stroke="none" x="871" y="114" width="128.17724609375" height="44" opacity="0.2"/></g><g transform="translate(-38,-22) scale(1,1)"><rect fill="#ffffff" stroke="none" x="864" y="107" width="128.17724609375" height="44"/></g><g transform="translate(-38,-22) scale(1,1)"><path fill="none" stroke="#000000" d="M 864 107 L 992.17724609375 107 L 992.17724609375 151 L 864 151 L 864 107 Z Z" stroke-miterlimit="10"/></g><g transform="translate(-38,-22) scale(1,1)"><path fill="none" stroke="#000000" d="M 864 132 L 992.17724609375 132" stroke-miterlimit="10"/></g><g transform="translate(-38,-22) scale(1,1)"><path fill="none" stroke="#000000" d="M 864 142 L 992.17724609375 142" stroke-miterlimit="10"/></g><g transform="translate(-38,-22) scale(1,1)"><g><path fill="none" stroke="none"/><text fill="#000000" stroke="none" font-family="Arial" font-size="13px" font-style="normal" font-weight="bold" text-decoration="none" x="872.81005859375" y="126.5">PluginRepoFactory</text></g></g><g transform="translate(-38,-22) scale(1,1)"><rect fill="#C0C0C0" stroke="none" x="967" y="258" width="81.21728515625" height="44" opacity="0.2"/></g><g transform="translate(-38,-22) scale(1,1)"><rect fill="#ffffff" stroke="none" x="960" y="251" width="81.21728515625" height="44"/></g><g transform="translate(-38,-22) scale(1,1)"><path fill="none" stroke="#000000" d="M 960 251 L 1041.21728515625 251 L 1041.21728515625 295 L 960 295 L 960 251 Z Z" stroke-miterlimit="10"/></g><g transform="translate(-38,-22) scale(1,1)"><path fill="none" stroke="#000000" d="M 963 251 L 963 295" stroke-miterlimit="10"/></g><g transform="translate(-38,-22) scale(1,1)"><path fill="none" stroke="#000000" d="M 1038.21728515625 251 L 1038.21728515625 295" stroke-miterlimit="10"/></g><g transform="translate(-38,-22) scale(1,1)"><path fill="none" stroke="#000000" d="M 960 276 L 1041.21728515625 276" stroke-miterlimit="10"/></g><g transform="translate(-38,-22) scale(1,1)"><path fill="none" stroke="#000000" d="M 960 286 L 1041.21728515625 286" stroke-miterlimit="10"/></g><g transform="translate(-38,-22) scale(1,1)"><g><path fill="none" stroke="none"/><text fill="#000000" stroke="none" font-family="Arial" font-size="13px" font-style="normal" font-weight="bold" text-decoration="none" x="967.0009765625" y="270.5">PluginRepo</text></g></g><g transform="translate(-38,-22) scale(1,1)"><rect fill="#C0C0C0" stroke="none" x="759" y="258" width="133.236328125" height="44" opacity="0.2"/></g><g transform="translate(-38,-22) scale(1,1)"><rect fill="#ffffff" stroke="none" x="752" y="251" width="133.236328125" height="44"/></g><g transform="translate(-38,-22) scale(1,1)"><path fill="none" stroke="#000000" d="M 752 251 L 885.236328125 251 L 885.236328125 295 L 752 295 L 752 251 Z Z" stroke-miterlimit="10"/></g><g transform="translate(-38,-22) scale(1,1)"><path fill="none" stroke="#000000" d="M 755 251 L 755 295" stroke-miterlimit="10"/></g><g transform="translate(-38,-22) scale(1,1)"><path fill="none" stroke="#000000" d="M 882.236328125 251 L 882.236328125 295" stroke-miterlimit="10"/></g><g transform="translate(-38,-22) scale(1,1)"><path fill="none" stroke="#000000" d="M 752 276 L 885.236328125 276" stroke-miterlimit="10"/></g><g transform="translate(-38,-22) scale(1,1)"><path fill="none" stroke="#000000" d="M 752 286 L 885.236328125 286" stroke-miterlimit="10"/></g><g transform="translate(-38,-22) scale(1,1)"><g><path fill="none" stroke="none"/><text fill="#000000" stroke="none" font-family="Arial" font-size="13px" font-style="normal" font-weight="bold" text-decoration="none" x="761.171875" y="270.5">PluginRepoRegistry</text></g></g><g transform="translate(-38,-22) scale(1,1)"><rect fill="#C0C0C0" stroke="none" x="574" y="335" width="140.4853515625" height="44" opacity="0.2"/></g><g transform="translate(-38,-22) scale(1,1)"><rect fill="#ffffff" stroke="none" x="567" y="328" width="140.4853515625" height="44"/></g><g transform="translate(-38,-22) scale(1,1)"><path fill="none" stroke="#000000" d="M 567 328 L 707.4853515625 328 L 707.4853515625 372 L 567 372 L 567 328 Z Z" stroke-miterlimit="10"/></g><g transform="translate(-38,-22) scale(1,1)"><path fill="none" stroke="#000000" d="M 567 353 L 707.4853515625 353" stroke-miterlimit="10"/></g><g transform="translate(-38,-22) scale(1,1)"><path fill="none" stroke="#000000" d="M 567 363 L 707.4853515625 363" stroke-miterlimit="10"/></g><g transform="translate(-38,-22) scale(1,1)"><g><path fill="none" stroke="none"/><text fill="#000000" stroke="none" font-family="Arial" font-size="13px" font-style="italic" font-weight="bold" text-decoration="none" x="584.16357421875" y="347.5">PermissionManager</text></g></g><g transform="translate(-38,-22) scale(1,1)"><rect fill="#C0C0C0" stroke="none" x="1119" y="258" width="84.8291015625" height="44" opacity="0.2"/></g><g transform="translate(-38,-22) scale(1,1)"><rect fill="#ffffff" stroke="none" x="1112" y="251" width="84.8291015625" height="44"/></g><g transform="translate(-38,-22) scale(1,1)"><path fill="none" stroke="#000000" d="M 1112 251 L 1196.8291015625 251 L 1196.8291015625 295 L 1112 295 L 1112 251 Z Z" stroke-miterlimit="10"/></g><g transform="translate(-38,-22) scale(1,1)"><path fill="none" stroke="#000000" d="M 1112 276 L 1196.8291015625 276" stroke-miterlimit="10"/></g><g transform="translate(-38,-22) scale(1,1)"><path fill="none" stroke="#000000" d="M 1112 286 L 1196.8291015625 286" stroke-miterlimit="10"/></g><g transform="translate(-38,-22) scale(1,1)"><g><path fill="none" stroke="none"/><text fill="#000000" stroke="none" font-family="Arial" font-size="13px" font-style="italic" font-weight="bold" text-decoration="none" x="1122.641357421875" y="270.5">PluginSetup</text></g></g><g transform="translate(-38,-22) scale(1,1)"><rect fill="#C0C0C0" stroke="none" x="1279" y="258" width="50.919921875" height="44" opacity="0.2"/></g><g transform="translate(-38,-22) scale(1,1)"><rect fill="#ffffff" stroke="none" x="1272" y="251" width="50.919921875" height="44"/></g><g transform="translate(-38,-22) scale(1,1)"><path fill="none" stroke="#000000" d="M 1272 251 L 1322.919921875 251 L 1322.919921875 295 L 1272 295 L 1272 251 Z Z" stroke-miterlimit="10"/></g><g transform="translate(-38,-22) scale(1,1)"><path fill="none" stroke="#000000" d="M 1275 251 L 1275 295" stroke-miterlimit="10"/></g><g transform="translate(-38,-22) scale(1,1)"><path fill="none" stroke="#000000" d="M 1319.919921875 251 L 1319.919921875 295" stroke-miterlimit="10"/></g><g transform="translate(-38,-22) scale(1,1)"><path fill="none" stroke="#000000" d="M 1272 276 L 1322.919921875 276" stroke-miterlimit="10"/></g><g transform="translate(-38,-22) scale(1,1)"><path fill="none" stroke="#000000" d="M 1272 286 L 1322.919921875 286" stroke-miterlimit="10"/></g><g transform="translate(-38,-22) scale(1,1)"><g><path fill="none" stroke="none"/><text fill="#000000" stroke="none" font-family="Arial" font-size="13px" font-style="italic" font-weight="bold" text-decoration="none" x="1280.127685546875" y="270.5">Plugin</text></g></g><g transform="translate(-38,-22) scale(1,1)"><path fill="none" stroke="#000000" d="M 1156 251 L 1156 202 L 1111.720458984375 202" stroke-miterlimit="10"/></g><g transform="translate(-38,-22) scale(1,1)"><rect fill="#C0C0C0" stroke="none" x="247" y="258" width="50.919921875" height="44" opacity="0.2"/></g><g transform="translate(-38,-22) scale(1,1)"><rect fill="#ffffff" stroke="none" x="240" y="251" width="50.919921875" height="44"/></g><g transform="translate(-38,-22) scale(1,1)"><path fill="none" stroke="#000000" d="M 240 251 L 290.919921875 251 L 290.919921875 295 L 240 295 L 240 251 Z Z" stroke-miterlimit="10"/></g><g transform="translate(-38,-22) scale(1,1)"><path fill="none" stroke="#000000" d="M 243 251 L 243 295" stroke-miterlimit="10"/></g><g transform="translate(-38,-22) scale(1,1)"><path fill="none" stroke="#000000" d="M 287.919921875 251 L 287.919921875 295" stroke-miterlimit="10"/></g><g transform="translate(-38,-22) scale(1,1)"><path fill="none" stroke="#000000" d="M 240 276 L 290.919921875 276" stroke-miterlimit="10"/></g><g transform="translate(-38,-22) scale(1,1)"><path fill="none" stroke="#000000" d="M 240 286 L 290.919921875 286" stroke-miterlimit="10"/></g><g transform="translate(-38,-22) scale(1,1)"><g><path fill="none" stroke="none"/><text fill="#000000" stroke="none" font-family="Arial" font-size="13px" font-style="normal" font-weight="bold" text-decoration="none" x="251.37451171875" y="270.5">DAO</text></g></g><g transform="translate(-38,-22) scale(1,1)"><rect fill="#C0C0C0" stroke="none" x="199" y="114" width="84.84814453125" height="44" opacity="0.2"/></g><g transform="translate(-38,-22) scale(1,1)"><rect fill="#ffffff" stroke="none" x="192" y="107" width="84.84814453125" height="44"/></g><g transform="translate(-38,-22) scale(1,1)"><path fill="none" stroke="#000000" d="M 192 107 L 276.84814453125 107 L 276.84814453125 151 L 192 151 L 192 107 Z Z" stroke-miterlimit="10"/></g><g transform="translate(-38,-22) scale(1,1)"><path fill="none" stroke="#000000" d="M 192 132 L 276.84814453125 132" stroke-miterlimit="10"/></g><g transform="translate(-38,-22) scale(1,1)"><path fill="none" stroke="#000000" d="M 192 142 L 276.84814453125 142" stroke-miterlimit="10"/></g><g transform="translate(-38,-22) scale(1,1)"><g><path fill="none" stroke="none"/><text fill="#000000" stroke="none" font-family="Arial" font-size="13px" font-style="normal" font-weight="bold" text-decoration="none" x="198.667724609375" y="126.5">DAOFactory</text></g></g><g transform="translate(-38,-22) scale(1,1)"><rect fill="#C0C0C0" stroke="none" x="391" y="258" width="89.9072265625" height="44" opacity="0.2"/></g><g transform="translate(-38,-22) scale(1,1)"><rect fill="#ffffff" stroke="none" x="384" y="251" width="89.9072265625" height="44"/></g><g transform="translate(-38,-22) scale(1,1)"><path fill="none" stroke="#000000" d="M 384 251 L 473.9072265625 251 L 473.9072265625 295 L 384 295 L 384 251 Z Z" stroke-miterlimit="10"/></g><g transform="translate(-38,-22) scale(1,1)"><path fill="none" stroke="#000000" d="M 387 251 L 387 295" stroke-miterlimit="10"/></g><g transform="translate(-38,-22) scale(1,1)"><path fill="none" stroke="#000000" d="M 470.9072265625 251 L 470.9072265625 295" stroke-miterlimit="10"/></g><g transform="translate(-38,-22) scale(1,1)"><path fill="none" stroke="#000000" d="M 384 276 L 473.9072265625 276" stroke-miterlimit="10"/></g><g transform="translate(-38,-22) scale(1,1)"><path fill="none" stroke="#000000" d="M 384 286 L 473.9072265625 286" stroke-miterlimit="10"/></g><g transform="translate(-38,-22) scale(1,1)"><g><path fill="none" stroke="none"/><text fill="#000000" stroke="none" font-family="Arial" font-size="13px" font-style="normal" font-weight="bold" text-decoration="none" x="391.029541015625" y="270.5">DAORegistry</text></g></g><g transform="translate(-38,-22) scale(1,1)"><path fill="none" stroke="#000000" d="M 1296 251 L 1296 202 L 1327.7099609375 202" stroke-miterlimit="10"/></g><g transform="translate(-38,-22) scale(1,1)"><path fill="none" stroke="#000000" d="M 291 264 L 347 264 L 347 214" stroke-miterlimit="10"/></g><g transform="translate(-38,-22) scale(1,1)"><path fill="none" stroke="#000000" d="M 277 126 L 448 126 L 448 251" stroke-miterlimit="10"/></g><g transform="translate(-38,-22) scale(1,1)"><path fill="none" stroke="#000000" d="M 443.790482243984 240.83732514237585 L 448 251 L 452.209517756016 240.83732514237585" stroke-miterlimit="10"/></g><g transform="translate(-38,-22) scale(1,1)"><g><path fill="none" stroke="none"/><text fill="#000000" stroke="none" font-family="Arial" font-size="13px" font-style="normal" font-weight="normal" text-decoration="none" x="378.5" y="137.5">+registers</text></g></g><g transform="translate(-38,-22) scale(1,1)"><path fill="none" stroke="#000000" d="M 291 292 L 384 292" stroke-miterlimit="10"/></g><g transform="translate(-38,-22) scale(1,1)"><g><path fill="none" stroke="none"/><text fill="#000000" stroke="none" font-family="Arial" font-size="13px" font-style="normal" font-weight="normal" text-decoration="none" x="309.726806640625" y="310.5">*</text></g></g><g transform="translate(-38,-22) scale(1,1)"><g><path fill="none" stroke="none"/><text fill="#000000" stroke="none" font-family="Arial" font-size="13px" font-style="normal" font-weight="normal" text-decoration="none" x="358.5" y="310.5">1</text></g></g><g transform="translate(-38,-22) scale(1,1)"><path fill="none" stroke="#000000" d="M 1041 264 L 1112 264" stroke-miterlimit="10"/></g><g transform="translate(-38,-22) scale(1,1)"><g><path fill="none" stroke="none"/><text fill="#000000" stroke="none" font-family="Arial" font-size="13px" font-style="normal" font-weight="normal" text-decoration="none" x="1059.220458984375" y="282.5">*</text></g></g><g transform="translate(-38,-22) scale(1,1)"><g><path fill="none" stroke="none"/><text fill="#000000" stroke="none" font-family="Arial" font-size="13px" font-style="normal" font-weight="normal" text-decoration="none" x="1087.58544921875" y="282.5">*</text></g></g><g transform="translate(-38,-22) scale(1,1)"><path fill="none" stroke="#000000" d="M 960 259 L 885 259" stroke-miterlimit="10"/></g><g transform="translate(-38,-22) scale(1,1)"><g><path fill="none" stroke="none"/><text fill="#000000" stroke="none" font-family="Arial" font-size="13px" font-style="normal" font-weight="normal" text-decoration="none" x="935.220458984375" y="252.5">*</text></g></g><g transform="translate(-38,-22) scale(1,1)"><g><path fill="none" stroke="none"/><text fill="#000000" stroke="none" font-family="Arial" font-size="13px" font-style="normal" font-weight="normal" text-decoration="none" x="895.5" y="252.5">1</text></g></g><g transform="translate(-38,-22) scale(1,1)"><path fill="none" stroke="#000000" d="M 1197 256 L 1272 256" stroke-miterlimit="10"/></g><g transform="translate(-38,-22) scale(1,1)"><path fill="#FFFFFF" stroke="none" d="M 1207.162674857624 251.790482243984 L 1197 256 L 1207.162674857624 260.209517756016 L 1219 256"/></g><g transform="translate(-38,-22) scale(1,1)"><path fill="none" stroke="#000000" d="M 1207.162674857624 251.790482243984 L 1197 256 L 1207.162674857624 260.209517756016 L 1219 256 L 1207.162674857624 251.790482243984" stroke-miterlimit="10"/></g><g transform="translate(-38,-22) scale(1,1)"><g><path fill="none" stroke="none"/><text fill="#000000" stroke="none" font-family="Arial" font-size="13px" font-style="normal" font-weight="normal" text-decoration="none" x="1214.5" y="274.5">1</text></g></g><g transform="translate(-38,-22) scale(1,1)"><g><path fill="none" stroke="none"/><text fill="#000000" stroke="none" font-family="Arial" font-size="13px" font-style="normal" font-weight="normal" text-decoration="none" x="1246.5" y="274.5">1</text></g></g><g transform="translate(-38,-22) scale(1,1)"><path fill="none" stroke="#000000" d="M 808 251 L 808 120 L 864 120" stroke-miterlimit="10"/></g><g transform="translate(-38,-22) scale(1,1)"><path fill="#FFFFFF" stroke="none" d="M 853.8373251423759 124.20951775601598 L 864 120 L 853.8373251423758 115.79048224398402 L 842 120"/></g><g transform="translate(-38,-22) scale(1,1)"><path fill="none" stroke="#000000" d="M 853.8373251423759 124.20951775601598 L 864 120 L 853.8373251423758 115.79048224398402 L 842 120 L 853.8373251423759 124.20951775601598" stroke-miterlimit="10"/></g><g transform="translate(-38,-22) scale(1,1)"><path fill="none" stroke="#000000" d="M 1024 251 L 1024 120 L 992 120" stroke-miterlimit="10"/></g><g transform="translate(-38,-22) scale(1,1)"><path fill="#FFFFFF" stroke="none" d="M 1002.1626748576241 115.79048224398402 L 992 120 L 1002.1626748576241 124.20951775601598 L 1014 120"/></g><g transform="translate(-38,-22) scale(1,1)"><path fill="none" stroke="#000000" d="M 1002.1626748576241 115.79048224398402 L 992 120 L 1002.1626748576241 124.20951775601598 L 1014 120 L 1002.1626748576241 115.79048224398402" stroke-miterlimit="10"/></g><g transform="translate(-38,-22) scale(1,1)"><path fill="none" stroke="#000000" d="M 864 136 L 832 136 L 832 251" stroke-miterlimit="10"/></g><g transform="translate(-38,-22) scale(1,1)"><path fill="none" stroke="#000000" d="M 827.790482243984 240.83732514237585 L 832 251 L 836.209517756016 240.83732514237585" stroke-miterlimit="10"/></g><g transform="translate(-38,-22) scale(1,1)"><g><path fill="none" stroke="none"/><text fill="#000000" stroke="none" font-family="Arial" font-size="13px" font-style="normal" font-weight="normal" text-decoration="none" x="831.5" y="163.5">+registers</text></g></g><g transform="translate(-38,-22) scale(1,1)"><path fill="none" stroke="#000000" d="M 984 151 L 984 251" stroke-miterlimit="10"/></g><g transform="translate(-38,-22) scale(1,1)"><path fill="none" stroke="#000000" d="M 979.790482243984 240.83732514237585 L 984 251 L 988.209517756016 240.83732514237585" stroke-miterlimit="10"/></g><g transform="translate(-38,-22) scale(1,1)"><g><path fill="none" stroke="none"/><text fill="#000000" stroke="none" font-family="Arial" font-size="13px" font-style="normal" font-weight="normal" text-decoration="none" x="930.062255859375" y="177.5">+deploysProxy</text></g></g><g transform="translate(-38,-22) scale(1,1)"><path fill="none" stroke="#000000" d="M 256 151 L 256 251" stroke-miterlimit="10"/></g><g transform="translate(-38,-22) scale(1,1)"><path fill="none" stroke="#000000" d="M 251.790482243984 240.83732514237585 L 256 251 L 260.209517756016 240.83732514237585" stroke-miterlimit="10"/></g><g transform="translate(-38,-22) scale(1,1)"><g><path fill="none" stroke="none"/><text fill="#000000" stroke="none" font-family="Arial" font-size="13px" font-style="normal" font-weight="normal" text-decoration="none" x="238.5" y="220.5">+deploys proxy</text></g></g><g transform="translate(-38,-22) scale(1,1)"><path fill="none" stroke="#000000" d="M 382 199 L 400 199 L 400 251" stroke-miterlimit="10" stroke-dasharray="3"/></g><g transform="translate(-38,-22) scale(1,1)"><path fill="none" stroke="#000000" d="M 395.790482243984 240.83732514237585 L 400 251 L 404.209517756016 240.83732514237585" stroke-miterlimit="10"/></g><g transform="translate(-38,-22) scale(1,1)"><path fill="none" stroke="#000000" d="M 248 251 L 248 151" stroke-miterlimit="10"/></g><g transform="translate(-38,-22) scale(1,1)"><path fill="#FFFFFF" stroke="none" d="M 252.209517756016 161.16267485762415 L 248 151 L 243.790482243984 161.16267485762415 L 248 173"/></g><g transform="translate(-38,-22) scale(1,1)"><path fill="none" stroke="#000000" d="M 252.209517756016 161.16267485762415 L 248 151 L 243.790482243984 161.16267485762415 L 248 173 L 252.209517756016 161.16267485762415" stroke-miterlimit="10"/></g><g transform="translate(-38,-22) scale(1,1)"><path fill="none" stroke="#000000" d="M 424 251 L 424 144 L 277 144" stroke-miterlimit="10"/></g><g transform="translate(-38,-22) scale(1,1)"><path fill="#FFFFFF" stroke="none" d="M 287.16267485762415 139.790482243984 L 277 144 L 287.16267485762415 148.209517756016 L 299 144"/></g><g transform="translate(-38,-22) scale(1,1)"><path fill="none" stroke="#000000" d="M 287.16267485762415 139.790482243984 L 277 144 L 287.16267485762415 148.209517756016 L 299 144 L 287.16267485762415 139.790482243984" stroke-miterlimit="10"/></g><g transform="translate(-38,-22) scale(1,1)"><path fill="none" stroke="#000000" d="M 264 295 L 264 430 L 563 430" stroke-miterlimit="10"/></g><g transform="translate(-38,-22) scale(1,1)"><path fill="none" stroke="#000000" d="M 552.8373251423759 434.209517756016 L 563 430 L 552.8373251423758 425.790482243984" stroke-miterlimit="10"/></g><g transform="translate(-38,-22) scale(1,1)"><g><path fill="none" stroke="none"/><text fill="#000000" stroke="none" font-family="Arial" font-size="13px" font-style="normal" font-weight="normal" text-decoration="none" x="341.5" y="428.5">+applySetup</text></g></g><g transform="translate(-38,-22) scale(1,1)"><rect fill="#C0C0C0" stroke="none" x="55" y="258" width="110.87353515625" height="44" opacity="0.2"/></g><g transform="translate(-38,-22) scale(1,1)"><rect fill="#ffffff" stroke="none" x="48" y="251" width="110.87353515625" height="44"/></g><g transform="translate(-38,-22) scale(1,1)"><path fill="none" stroke="#000000" d="M 48 251 L 158.87353515625 251 L 158.87353515625 295 L 48 295 L 48 251 Z Z" stroke-miterlimit="10"/></g><g transform="translate(-38,-22) scale(1,1)"><path fill="none" stroke="#000000" d="M 48 276 L 158.87353515625 276" stroke-miterlimit="10"/></g><g transform="translate(-38,-22) scale(1,1)"><path fill="none" stroke="#000000" d="M 48 286 L 158.87353515625 286" stroke-miterlimit="10"/></g><g transform="translate(-38,-22) scale(1,1)"><g><path fill="none" stroke="none"/><text fill="#000000" stroke="none" font-family="Arial" font-size="13px" font-style="italic" font-weight="bold" text-decoration="none" x="58.304931640625" y="270.5">CallbackHandler</text></g></g><g transform="translate(-38,-22) scale(1,1)"><path fill="#C0C0C0" stroke="none" d="M 1332.121337890625 113.5 C 1332.121337890625 107.1487248 1337.270062690625 102 1343.621337890625 102 C 1349.972613090625 102 1355.121337890625 107.1487248 1355.121337890625 113.5 C 1355.121337890625 119.8512752 1349.972613090625 125 1343.621337890625 125 C 1337.270062690625 125 1332.121337890625 119.8512752 1332.121337890625 113.5 Z" opacity="0.2"/></g><g transform="translate(-38,-22) scale(1,1)"><path fill="#ffffff" stroke="none" d="M 1325.121337890625 106.5 C 1325.121337890625 100.1487248 1330.270062690625 95 1336.621337890625 95 C 1342.972613090625 95 1348.121337890625 100.1487248 1348.121337890625 106.5 C 1348.121337890625 112.8512752 1342.972613090625 118 1336.621337890625 118 C 1330.270062690625 118 1325.121337890625 112.8512752 1325.121337890625 106.5 Z"/></g><g transform="translate(-38,-22) scale(1,1)"><path fill="none" stroke="#000000" d="M 1325.121337890625 106.5 C 1325.121337890625 100.1487248 1330.270062690625 95 1336.621337890625 95 C 1342.972613090625 95 1348.121337890625 100.1487248 1348.121337890625 106.5 C 1348.121337890625 112.8512752 1342.972613090625 118 1336.621337890625 118 C 1330.270062690625 118 1325.121337890625 112.8512752 1325.121337890625 106.5 Z" stroke-miterlimit="10"/></g><g transform="translate(-38,-22) scale(1,1)"><g><path fill="none" stroke="none"/><text fill="#000000" stroke="none" font-family="Arial" font-size="13px" font-style="normal" font-weight="bold" text-decoration="none" x="1302.667724609375" y="137.5">IMembersip</text></g></g><g transform="translate(-38,-22) scale(1,1)"><path fill="#C0C0C0" stroke="none" d="M 1413.7099609375 113.5 C 1413.7099609375 107.1487248 1418.8586857375 102 1425.2099609375 102 C 1431.5612361375 102 1436.7099609375 107.1487248 1436.7099609375 113.5 C 1436.7099609375 119.8512752 1431.5612361375 125 1425.2099609375 125 C 1418.8586857375 125 1413.7099609375 119.8512752 1413.7099609375 113.5 Z" opacity="0.2"/></g><g transform="translate(-38,-22) scale(1,1)"><path fill="#ffffff" stroke="none" d="M 1406.7099609375 106.5 C 1406.7099609375 100.1487248 1411.8586857375 95 1418.2099609375 95 C 1424.5612361375 95 1429.7099609375 100.1487248 1429.7099609375 106.5 C 1429.7099609375 112.8512752 1424.5612361375 118 1418.2099609375 118 C 1411.8586857375 118 1406.7099609375 112.8512752 1406.7099609375 106.5 Z"/></g><g transform="translate(-38,-22) scale(1,1)"><path fill="none" stroke="#000000" d="M 1406.7099609375 106.5 C 1406.7099609375 100.1487248 1411.8586857375 95 1418.2099609375 95 C 1424.5612361375 95 1429.7099609375 100.1487248 1429.7099609375 106.5 C 1429.7099609375 112.8512752 1424.5612361375 118 1418.2099609375 118 C 1411.8586857375 118 1406.7099609375 112.8512752 1406.7099609375 106.5 Z" stroke-miterlimit="10"/></g><g transform="translate(-38,-22) scale(1,1)"><g><path fill="none" stroke="none"/><text fill="#000000" stroke="none" font-family="Arial" font-size="13px" font-style="normal" font-weight="bold" text-decoration="none" x="1390.75" y="137.5">IProposal</text></g></g><g transform="translate(-38,-22) scale(1,1)"><rect fill="#C0C0C0" stroke="none" x="588" y="39" width="112.28271484375" height="44" opacity="0.2"/></g><g transform="translate(-38,-22) scale(1,1)"><rect fill="#ffffff" stroke="none" x="581" y="32" width="112.28271484375" height="44"/></g><g transform="translate(-38,-22) scale(1,1)"><path fill="none" stroke="#000000" d="M 581 32 L 693.28271484375 32 L 693.28271484375 76 L 581 76 L 581 32 Z Z" stroke-miterlimit="10"/></g><g transform="translate(-38,-22) scale(1,1)"><path fill="none" stroke="#000000" d="M 581 57 L 693.28271484375 57" stroke-miterlimit="10"/></g><g transform="translate(-38,-22) scale(1,1)"><path fill="none" stroke="#000000" d="M 581 67 L 693.28271484375 67" stroke-miterlimit="10"/></g><g transform="translate(-38,-22) scale(1,1)"><g><path fill="none" stroke="none"/><text fill="#000000" stroke="none" font-family="Arial" font-size="13px" font-style="italic" font-weight="bold" text-decoration="none" x="592.364990234375" y="51.5">DaoAuthorizable</text></g></g><g transform="translate(-38,-22) scale(1,1)"><path fill="none" stroke="#000000" d="M 1288 251 L 1288 40 L 693 40" stroke-miterlimit="10"/></g><g transform="translate(-38,-22) scale(1,1)"><path fill="#FFFFFF" stroke="none" d="M 713.3253497152483 31.580964487968025 L 693 40 L 713.3253497152483 48.419035512031975"/></g><g transform="translate(-38,-22) scale(1,1)"><path fill="none" stroke="#000000" d="M 713.3253497152483 31.580964487968025 L 693 40 L 713.3253497152483 48.419035512031975 L 713.3253497152483 31.580964487968025" stroke-miterlimit="10"/></g><g transform="translate(-38,-22) scale(1,1)"><path fill="none" stroke="#000000" d="M 711 438 L 1136 438 L 1136 295" stroke-miterlimit="10"/></g><g transform="translate(-38,-22) scale(1,1)"><path fill="none" stroke="#000000" d="M 1140.2095177560159 305.16267485762415 L 1136 295 L 1131.7904822439841 305.16267485762415" stroke-miterlimit="10"/></g><g transform="translate(-38,-22) scale(1,1)"><g><path fill="none" stroke="none"/><text fill="#000000" stroke="none" font-family="Arial" font-size="13px" font-style="normal" font-weight="normal" text-decoration="none" x="1046.5" y="419.5">+consumes</text></g></g><g transform="translate(-38,-22) scale(1,1)"><path fill="none" stroke="#000000" d="M 1056 200 L 1041 200 L 1041 251" stroke-miterlimit="10" stroke-dasharray="3"/></g><g transform="translate(-38,-22) scale(1,1)"><path fill="none" stroke="#000000" d="M 1036.7904822439841 240.83732514237585 L 1041 251 L 1045.2095177560159 240.83732514237585" stroke-miterlimit="10"/></g><g transform="translate(-38,-22) scale(1,1)"><path fill="none" stroke="#000000" d="M 1336 239 L 1336 480 L 680 480 L 680 460" stroke-miterlimit="10" stroke-dasharray="3"/></g><g transform="translate(-38,-22) scale(1,1)"><path fill="none" stroke="#000000" d="M 684.209517756016 470.16267485762415 L 680 460 L 675.790482243984 470.16267485762415" stroke-miterlimit="10"/></g><g transform="translate(-38,-22) scale(1,1)"><g><path fill="none" stroke="none"/><text fill="#000000" stroke="none" font-family="Arial" font-size="13px" font-style="normal" font-weight="normal" text-decoration="none" x="972.220458984375" y="501.5">+pluginType</text></g></g><g transform="translate(-38,-22) scale(1,1)"><path fill="#C0C0C0" stroke="none" d="M 917.91455078125 209.5 C 917.91455078125 203.1487248 923.06327558125 198 929.41455078125 198 C 935.76582598125 198 940.91455078125 203.1487248 940.91455078125 209.5 C 940.91455078125 215.8512752 935.76582598125 221 929.41455078125 221 C 923.06327558125 221 917.91455078125 215.8512752 917.91455078125 209.5 Z" opacity="0.2"/></g><g transform="translate(-38,-22) scale(1,1)"><path fill="#ffffff" stroke="none" d="M 910.91455078125 202.5 C 910.91455078125 196.1487248 916.06327558125 191 922.41455078125 191 C 928.76582598125 191 933.91455078125 196.1487248 933.91455078125 202.5 C 933.91455078125 208.8512752 928.76582598125 214 922.41455078125 214 C 916.06327558125 214 910.91455078125 208.8512752 910.91455078125 202.5 Z"/></g><g transform="translate(-38,-22) scale(1,1)"><path fill="none" stroke="#000000" d="M 910.91455078125 202.5 C 910.91455078125 196.1487248 916.06327558125 191 922.41455078125 191 C 928.76582598125 191 933.91455078125 196.1487248 933.91455078125 202.5 C 933.91455078125 208.8512752 928.76582598125 214 922.41455078125 214 C 916.06327558125 214 910.91455078125 208.8512752 910.91455078125 202.5 Z" stroke-miterlimit="10"/></g><g transform="translate(-38,-22) scale(1,1)"><g><path fill="none" stroke="none"/><text fill="#000000" stroke="none" font-family="Arial" font-size="13px" font-style="normal" font-weight="bold" text-decoration="none" x="887.0009765625" y="233.5">IPluginRepo</text></g></g><g transform="translate(-38,-22) scale(1,1)"><path fill="none" stroke="#000000" d="M 968 251 L 968 202 L 933.91455078125 202" stroke-miterlimit="10"/></g><g transform="translate(-38,-22) scale(1,1)"><path fill="none" stroke="#000000" d="M 880 192 L 856 192 L 856 251" stroke-miterlimit="10" stroke-dasharray="3"/></g><g transform="translate(-38,-22) scale(1,1)"><path fill="none" stroke="#000000" d="M 851.790482243984 240.83732514237585 L 856 251 L 860.209517756016 240.83732514237585" stroke-miterlimit="10"/></g><g transform="translate(-38,-22) scale(1,1)"><rect fill="#C0C0C0" stroke="none" x="567" y="114" width="154.22802734375" height="44" opacity="0.2"/></g><g transform="translate(-38,-22) scale(1,1)"><rect fill="#ffffff" stroke="none" x="560" y="107" width="154.22802734375" height="44"/></g><g transform="translate(-38,-22) scale(1,1)"><path fill="none" stroke="#000000" d="M 560 107 L 714.22802734375 107 L 714.22802734375 151 L 560 151 L 560 107 Z Z" stroke-miterlimit="10"/></g><g transform="translate(-38,-22) scale(1,1)"><path fill="none" stroke="#000000" d="M 563 107 L 563 151" stroke-miterlimit="10"/></g><g transform="translate(-38,-22) scale(1,1)"><path fill="none" stroke="#000000" d="M 711.22802734375 107 L 711.22802734375 151" stroke-miterlimit="10"/></g><g transform="translate(-38,-22) scale(1,1)"><path fill="none" stroke="#000000" d="M 560 132 L 714.22802734375 132" stroke-miterlimit="10"/></g><g transform="translate(-38,-22) scale(1,1)"><path fill="none" stroke="#000000" d="M 560 142 L 714.22802734375 142" stroke-miterlimit="10"/></g><g transform="translate(-38,-22) scale(1,1)"><g><path fill="none" stroke="none"/><text fill="#000000" stroke="none" font-family="Arial" font-size="13px" font-style="italic" font-weight="bold" text-decoration="none" x="576.106689453125" y="126.5">InterfaceBasedRegistry</text></g></g><g transform="translate(-38,-22) scale(1,1)"><path fill="none" stroke="#000000" d="M 472 251 L 472 134 L 560 134" stroke-miterlimit="10"/></g><g transform="translate(-38,-22) scale(1,1)"><path fill="#FFFFFF" stroke="none" d="M 539.6746502847517 142.41903551203197 L 560 134 L 539.6746502847517 125.58096448796803"/></g><g transform="translate(-38,-22) scale(1,1)"><path fill="none" stroke="#000000" d="M 539.6746502847517 142.41903551203197 L 560 134 L 539.6746502847517 125.58096448796803 L 539.6746502847517 142.41903551203197" stroke-miterlimit="10"/></g><g transform="translate(-38,-22) scale(1,1)"><rect fill="#C0C0C0" stroke="none" x="563" y="183" width="163.58447265625" height="44" opacity="0.2"/></g><g transform="translate(-38,-22) scale(1,1)"><rect fill="#ffffff" stroke="none" x="556" y="176" width="163.58447265625" height="44"/></g><g transform="translate(-38,-22) scale(1,1)"><path fill="none" stroke="#000000" d="M 556 176 L 719.58447265625 176 L 719.58447265625 220 L 556 220 L 556 176 Z Z" stroke-miterlimit="10"/></g><g transform="translate(-38,-22) scale(1,1)"><path fill="none" stroke="#000000" d="M 559 176 L 559 220" stroke-miterlimit="10"/></g><g transform="translate(-38,-22) scale(1,1)"><path fill="none" stroke="#000000" d="M 716.58447265625 176 L 716.58447265625 220" stroke-miterlimit="10"/></g><g transform="translate(-38,-22) scale(1,1)"><path fill="none" stroke="#000000" d="M 556 201 L 719.58447265625 201" stroke-miterlimit="10"/></g><g transform="translate(-38,-22) scale(1,1)"><path fill="none" stroke="#000000" d="M 556 211 L 719.58447265625 211" stroke-miterlimit="10"/></g><g transform="translate(-38,-22) scale(1,1)"><g><path fill="none" stroke="none"/><text fill="#000000" stroke="none" font-family="Arial" font-size="13px" font-style="normal" font-weight="bold" text-decoration="none" x="565.175048828125" y="195.5">ENSSubdomainRegistrar</text></g></g><g transform="translate(-38,-22) scale(1,1)"><path fill="none" stroke="#000000" d="M 720 181 L 752 181 L 752 64 L 693 64" stroke-miterlimit="10"/></g><g transform="translate(-38,-22) scale(1,1)"><path fill="#FFFFFF" stroke="none" d="M 713.3253497152483 55.580964487968025 L 693 64 L 713.3253497152483 72.41903551203197"/></g><g transform="translate(-38,-22) scale(1,1)"><path fill="none" stroke="#000000" d="M 713.3253497152483 55.580964487968025 L 693 64 L 713.3253497152483 72.41903551203197 L 713.3253497152483 55.580964487968025" stroke-miterlimit="10"/></g><g transform="translate(-38,-22) scale(1,1)"><path fill="none" stroke="#000000" d="M 586 220 L 586 280 L 474 280" stroke-miterlimit="10"/></g><g transform="translate(-38,-22) scale(1,1)"><path fill="#FFFFFF" stroke="none" d="M 484.16267485762415 275.790482243984 L 474 280 L 484.16267485762415 284.209517756016 L 496 280"/></g><g transform="translate(-38,-22) scale(1,1)"><path fill="none" stroke="#000000" d="M 484.16267485762415 275.790482243984 L 474 280 L 484.16267485762415 284.209517756016 L 496 280 L 484.16267485762415 275.790482243984" stroke-miterlimit="10"/></g><g transform="translate(-38,-22) scale(1,1)"><path fill="none" stroke="#000000" d="M 709 220 L 709 273 L 752 273" stroke-miterlimit="10"/></g><g transform="translate(-38,-22) scale(1,1)"><path fill="#FFFFFF" stroke="none" d="M 741.8373251423759 277.209517756016 L 752 273 L 741.8373251423758 268.790482243984 L 730 273"/></g><g transform="translate(-38,-22) scale(1,1)"><path fill="none" stroke="#000000" d="M 741.8373251423759 277.209517756016 L 752 273 L 741.8373251423758 268.790482243984 L 730 273 L 741.8373251423759 277.209517756016" stroke-miterlimit="10"/></g><g transform="translate(-38,-22) scale(1,1)"><path fill="#C0C0C0" stroke="none" d="M 633.1708984375 282.5 C 633.1708984375 276.1487248 638.3196232375 271 644.6708984375 271 C 651.0221736375 271 656.1708984375 276.1487248 656.1708984375 282.5 C 656.1708984375 288.8512752 651.0221736375 294 644.6708984375 294 C 638.3196232375 294 633.1708984375 288.8512752 633.1708984375 282.5 Z" opacity="0.2"/></g><g transform="translate(-38,-22) scale(1,1)"><path fill="#ffffff" stroke="none" d="M 626.1708984375 275.5 C 626.1708984375 269.1487248 631.3196232375 264 637.6708984375 264 C 644.0221736375 264 649.1708984375 269.1487248 649.1708984375 275.5 C 649.1708984375 281.8512752 644.0221736375 287 637.6708984375 287 C 631.3196232375 287 626.1708984375 281.8512752 626.1708984375 275.5 Z"/></g><g transform="translate(-38,-22) scale(1,1)"><path fill="none" stroke="#000000" d="M 626.1708984375 275.5 C 626.1708984375 269.1487248 631.3196232375 264 637.6708984375 264 C 644.0221736375 264 649.1708984375 269.1487248 649.1708984375 275.5 C 649.1708984375 281.8512752 644.0221736375 287 637.6708984375 287 C 631.3196232375 287 626.1708984375 281.8512752 626.1708984375 275.5 Z" stroke-miterlimit="10"/></g><g transform="translate(-38,-22) scale(1,1)"><g><path fill="none" stroke="none"/><text fill="#000000" stroke="none" font-family="Arial" font-size="13px" font-style="normal" font-weight="bold" text-decoration="none" x="576.254150390625" y="306.5">IPermissionCondition</text></g></g><g transform="translate(-38,-22) scale(1,1)"><path fill="none" stroke="#000000" d="M 640 312 L 640 328" stroke-miterlimit="10" stroke-dasharray="3"/></g><g transform="translate(-38,-22) scale(1,1)"><path fill="none" stroke="#000000" d="M 635.790482243984 317.83732514237585 L 640 328 L 644.209517756016 317.83732514237585" stroke-miterlimit="10"/></g><g transform="translate(-38,-22) scale(1,1)"><rect fill="#C0C0C0" stroke="none" x="1393" y="183" width="64.62451171875" height="44" opacity="0.2"/></g><g transform="translate(-38,-22) scale(1,1)"><rect fill="#ffffff" stroke="none" x="1386" y="176" width="64.62451171875" height="44"/></g><g transform="translate(-38,-22) scale(1,1)"><path fill="none" stroke="#000000" d="M 1386 176 L 1450.62451171875 176 L 1450.62451171875 220 L 1386 220 L 1386 176 Z Z" stroke-miterlimit="10"/></g><g transform="translate(-38,-22) scale(1,1)"><path fill="none" stroke="#000000" d="M 1386 201 L 1450.62451171875 201" stroke-miterlimit="10"/></g><g transform="translate(-38,-22) scale(1,1)"><path fill="none" stroke="#000000" d="M 1386 211 L 1450.62451171875 211" stroke-miterlimit="10"/></g><g transform="translate(-38,-22) scale(1,1)"><g><path fill="none" stroke="none"/><text fill="#000000" stroke="none" font-family="Arial" font-size="13px" font-style="italic" font-weight="bold" text-decoration="none" x="1394.718017578125" y="195.5">Proposal</text></g></g><g transform="translate(-38,-22) scale(1,1)"><path fill="none" stroke="#000000" d="M 1418 175 L 1418 118" stroke-miterlimit="10"/></g><g transform="translate(-38,-22) scale(1,1)"><path fill="none" stroke="#000000" d="M 272 295 L 272 360 L 567 360" stroke-miterlimit="10"/></g><g transform="translate(-38,-22) scale(1,1)"><path fill="#FFFFFF" stroke="none" d="M 546.6746502847517 368.419035512032 L 567 360 L 546.6746502847517 351.580964487968"/></g><g transform="translate(-38,-22) scale(1,1)"><path fill="none" stroke="#000000" d="M 546.6746502847517 368.419035512032 L 567 360 L 546.6746502847517 351.580964487968 L 546.6746502847517 368.419035512032" stroke-miterlimit="10"/></g><g transform="translate(-38,-22) scale(1,1)"><path fill="none" stroke="#000000" d="M 240 278 L 159 278" stroke-miterlimit="10"/></g><g transform="translate(-38,-22) scale(1,1)"><path fill="#FFFFFF" stroke="none" d="M 179.3253497152483 269.580964487968 L 159 278 L 179.3253497152483 286.419035512032"/></g><g transform="translate(-38,-22) scale(1,1)"><path fill="none" stroke="#000000" d="M 179.3253497152483 269.580964487968 L 159 278 L 179.3253497152483 286.419035512032 L 179.3253497152483 269.580964487968" stroke-miterlimit="10"/></g><g transform="translate(-38,-22) scale(1,1)"><path fill="none" stroke="#000000" d="M 1000 295 L 1000 352 L 707 352" stroke-miterlimit="10"/></g><g transform="translate(-38,-22) scale(1,1)"><path fill="#FFFFFF" stroke="none" d="M 727.3253497152483 343.580964487968 L 707 352 L 727.3253497152483 360.419035512032"/></g><g transform="translate(-38,-22) scale(1,1)"><path fill="none" stroke="#000000" d="M 727.3253497152483 343.580964487968 L 707 352 L 727.3253497152483 360.419035512032 L 727.3253497152483 343.580964487968" stroke-miterlimit="10"/></g><g transform="translate(-38,-22) scale(1,1)"><path fill="none" stroke="#000000" d="M 563 438 L 224 438 L 224 151" stroke-miterlimit="10"/></g><g transform="translate(-38,-22) scale(1,1)"><path fill="#FFFFFF" stroke="none" d="M 228.209517756016 161.16267485762415 L 224 151 L 219.790482243984 161.16267485762415 L 224 173"/></g><g transform="translate(-38,-22) scale(1,1)"><path fill="none" stroke="#000000" d="M 228.209517756016 161.16267485762415 L 224 151 L 219.790482243984 161.16267485762415 L 224 173 L 228.209517756016 161.16267485762415" stroke-miterlimit="10"/></g><g transform="translate(-38,-22) scale(1,1)"><path fill="none" stroke="#000000" d="M 640 107 L 640 76" stroke-miterlimit="10"/></g><g transform="translate(-38,-22) scale(1,1)"><path fill="#FFFFFF" stroke="none" d="M 648.419035512032 96.32534971524831 L 640 76 L 631.580964487968 96.32534971524831"/></g><g transform="translate(-38,-22) scale(1,1)"><path fill="none" stroke="#000000" d="M 648.419035512032 96.32534971524831 L 640 76 L 631.580964487968 96.32534971524831 L 648.419035512032 96.32534971524831" stroke-miterlimit="10"/></g><g transform="translate(-38,-22) scale(1,1)"><path fill="none" stroke="#000000" d="M 280 251 L 280 56 L 581 56" stroke-miterlimit="10"/></g><g transform="translate(-38,-22) scale(1,1)"><path fill="#000000" stroke="none" d="M 570.8373251423759 60.20951775601599 L 581 56 L 570.8373251423758 51.790482243984016 L 559 56"/></g><g transform="translate(-38,-22) scale(1,1)"><path fill="none" stroke="#000000" d="M 570.8373251423759 60.20951775601599 L 581 56 L 570.8373251423758 51.790482243984016 L 559 56 L 570.8373251423759 60.20951775601599" stroke-miterlimit="10"/></g><g transform="translate(-38,-22) scale(1,1)"><path fill="none" stroke="#000000" d="M 784 251 L 784 136 L 714 136" stroke-miterlimit="10"/></g><g transform="translate(-38,-22) scale(1,1)"><path fill="#FFFFFF" stroke="none" d="M 734.3253497152483 127.58096448796803 L 714 136 L 734.3253497152483 144.41903551203197"/></g><g transform="translate(-38,-22) scale(1,1)"><path fill="none" stroke="#000000" d="M 734.3253497152483 127.58096448796803 L 714 136 L 734.3253497152483 144.41903551203197 L 734.3253497152483 127.58096448796803" stroke-miterlimit="10"/></g><g transform="translate(-38,-22) scale(1,1)"><path fill="none" stroke="#000000" d="M 208 151 L 208 456 L 563 456" stroke-miterlimit="10"/></g><g transform="translate(-38,-22) scale(1,1)"><path fill="none" stroke="#000000" d="M 552.8373251423759 460.209517756016 L 563 456 L 552.8373251423758 451.790482243984" stroke-miterlimit="10"/></g><g transform="translate(-38,-22) scale(1,1)"><g><path fill="none" stroke="none"/><text fill="#000000" stroke="none" font-family="Arial" font-size="13px" font-style="normal" font-weight="normal" text-decoration="none" x="231.5" y="467.5">+createDao</text></g></g><g transform="translate(-38,-22) scale(1,1)"><path fill="none" stroke="#000000" d="M 1008 295 L 1008 448 L 711 448" stroke-miterlimit="10" stroke-dasharray="3"/></g><g transform="translate(-38,-22) scale(1,1)"><path fill="none" stroke="#000000" d="M 721.1626748576241 443.790482243984 L 711 448 L 721.1626748576241 452.209517756016" stroke-miterlimit="10"/></g><g transform="translate(-38,-22) scale(1,1)"><path fill="none" stroke="#000000" d="M 793 295 L 793 424 L 711 424" stroke-miterlimit="10"/></g><g transform="translate(-38,-22) scale(1,1)"><path fill="#FFFFFF" stroke="none" d="M 721.1626748576241 419.790482243984 L 711 424 L 721.1626748576241 428.209517756016 L 733 424"/></g><g transform="translate(-38,-22) scale(1,1)"><path fill="none" stroke="#000000" d="M 721.1626748576241 419.790482243984 L 711 424 L 721.1626748576241 428.209517756016 L 733 424 L 721.1626748576241 419.790482243984" stroke-miterlimit="10"/></g><g transform="translate(-38,-22) scale(1,1)"><path fill="none" stroke="#000000" d="M 581 64 L 528 64 L 528 336 L 567 336" stroke-miterlimit="10"/></g><g transform="translate(-38,-22) scale(1,1)"><path fill="none" stroke="#000000" d="M 556.8373251423759 340.209517756016 L 567 336 L 556.8373251423758 331.790482243984" stroke-miterlimit="10"/></g><g transform="translate(-38,-22) scale(1,1)"><g><path fill="none" stroke="none"/><text fill="#000000" stroke="none" font-family="Arial" font-size="13px" font-style="normal" font-weight="normal" text-decoration="none" x="486.5" y="228.5">+asks</text></g></g></g></svg>